{"glyphs":{"0":{"ha":1156,"x_min":131,"x_max":1038,"o":"m 131 262 q 140 230 131 245 q 164 207 149 214 l 163 208 l 553 -20 q 585 -26 569 -26 q 614 -20 597 -26 l 1007 208 q 1028 232 1019 216 q 1038 262 1038 247 l 1038 714 q 1029 744 1038 729 q 1007 766 1021 758 l 614 993 q 553 993 582 1008 l 163 766 l 164 768 q 140 745 149 761 q 131 714 131 730 l 131 262 m 256 368 l 256 673 l 583 865 l 850 711 q 697 623 771 665 q 552 539 624 581 q 406 455 479 497 q 256 368 332 413 m 317 258 q 470 347 396 304 q 616 430 543 389 q 762 514 689 472 q 913 602 835 557 l 913 294 q 747 200 827 245 q 582 106 667 155 l 317 258 "},"1":{"ha":1156,"x_min":121,"x_max":642,"o":"m 135 684 l 134 685 q 157 661 142 669 q 187 653 172 653 q 218 660 201 653 l 517 832 l 517 37 q 535 -7 517 11 q 579 -25 553 -25 q 622 -7 603 -25 q 642 37 642 11 l 642 940 q 633 973 642 958 q 609 995 624 987 q 578 1003 595 1003 q 546 994 562 1004 q 352 881 449 936 q 157 768 255 825 l 158 770 q 128 733 135 758 q 135 684 121 707 "},"2":{"ha":1156,"x_min":115,"x_max":1029,"o":"m 126 681 q 180 652 144 652 q 212 659 195 652 l 574 868 q 643 828 611 847 q 705 792 675 810 q 768 755 736 774 q 839 714 800 736 l 147 315 q 129 296 136 310 q 122 266 122 282 q 128 233 122 249 q 151 207 134 216 l 539 -17 q 555 -24 547 -24 q 572 -26 564 -26 q 589 -24 583 -26 q 606 -16 596 -24 l 994 208 q 1023 245 1017 221 q 1017 293 1029 269 q 980 321 1004 315 q 933 317 956 328 l 571 109 q 501 148 533 129 q 438 185 469 167 q 375 221 407 203 q 304 262 343 240 l 999 663 q 1020 687 1014 672 q 1025 716 1026 701 q 1016 745 1023 732 q 997 766 1009 758 l 603 991 q 565 1002 578 1006 q 547 997 551 998 l 150 768 q 121 729 126 754 q 126 681 115 705 "},"3":{"ha":1156,"x_min":115,"x_max":1028,"o":"m 151 211 l 534 -8 q 541 -13 538 -11 q 549 -18 543 -16 q 561 -22 555 -21 q 574 -24 567 -24 q 595 -20 587 -24 l 606 -16 l 997 211 q 1028 265 1028 231 q 994 319 1027 304 l 996 318 l 696 490 l 997 663 q 1028 717 1028 682 q 994 771 1027 755 l 996 770 l 606 996 q 545 996 576 1011 l 151 770 q 123 731 131 755 q 129 685 115 707 q 166 659 140 664 q 214 663 191 653 l 574 869 l 842 715 l 543 545 q 511 490 511 524 q 545 436 511 452 l 543 437 l 842 265 l 574 110 q 394 215 484 163 q 214 318 304 267 q 165 324 190 330 q 129 296 141 318 q 123 249 115 273 q 151 211 130 224 "},"4":{"ha":1156,"x_min":127,"x_max":1038,"o":"m 127 262 q 138 226 127 240 q 164 207 149 212 q 197 203 179 201 q 228 212 214 204 q 374 297 300 253 q 519 380 449 340 l 519 37 q 537 -7 519 11 q 582 -25 555 -25 q 626 -7 608 -25 q 644 37 644 11 l 644 453 q 825 557 736 505 q 1004 661 914 608 q 1031 699 1025 675 q 1026 746 1038 724 q 990 772 1015 767 q 942 768 964 778 l 644 597 l 644 940 q 635 976 646 962 q 608 996 624 990 q 575 1000 593 1002 q 547 991 558 998 l 157 766 q 135 744 142 758 q 127 718 127 729 l 127 262 m 253 371 l 253 677 l 519 832 l 519 525 l 253 371 "},"5":{"ha":1156,"x_min":117,"x_max":1028,"o":"m 151 212 l 550 -18 q 573 -26 561 -25 q 599 -18 585 -28 l 996 212 q 1022 241 1015 225 q 1028 265 1028 257 l 1028 718 q 1010 761 1028 742 q 965 781 991 781 l 416 781 l 606 889 q 635 928 628 903 q 628 975 642 953 q 591 1001 616 996 q 543 997 566 1006 l 155 774 q 129 738 135 758 q 127 699 122 717 q 147 668 132 681 q 183 656 162 656 l 903 656 l 903 301 q 737 207 817 253 q 572 113 657 161 q 392 216 482 164 q 214 319 302 268 q 166 323 192 329 q 129 297 140 318 q 123 249 117 273 q 151 212 129 224 "},"6":{"ha":1156,"x_min":117,"x_max":1023,"o":"m 117 264 q 123 230 117 240 q 140 214 130 220 l 536 -14 q 570 -22 547 -21 q 603 -16 592 -24 l 991 210 q 1018 237 1013 222 q 1023 262 1023 252 l 1023 715 q 995 775 1023 762 q 936 774 966 787 q 589 572 762 673 q 241 371 415 471 l 241 681 l 602 888 q 630 924 624 900 q 624 972 636 949 q 587 998 612 993 q 539 994 562 1004 l 154 774 q 127 743 138 762 q 117 704 117 724 l 117 264 m 304 264 q 457 352 383 310 q 603 436 530 395 q 748 520 675 478 q 899 607 821 562 l 899 300 l 568 111 q 435 188 497 151 q 304 264 372 225 "},"7":{"ha":1156,"x_min":120,"x_max":1036,"o":"m 134 233 q 187 203 153 203 q 218 210 201 203 l 515 383 l 515 40 q 535 -4 515 14 q 578 -22 554 -22 q 622 -4 604 -22 q 640 40 640 14 l 640 456 l 1000 663 q 1029 701 1023 676 q 1025 747 1036 725 l 1023 749 q 985 776 1011 770 q 937 771 958 782 l 640 600 l 640 943 q 630 981 640 968 q 605 1000 619 994 q 575 1005 590 1006 q 553 1000 561 1004 l 157 771 q 127 733 134 757 q 134 685 120 709 q 187 654 153 654 q 218 661 201 654 l 515 835 l 515 526 l 157 319 q 127 281 134 306 q 134 233 120 257 "},"8":{"ha":1156,"x_min":119,"x_max":1023,"o":"m 130 230 q 154 207 138 216 l 528 -9 q 574 -20 547 -21 q 614 -9 600 -19 l 996 210 q 1018 235 1013 220 q 1021 266 1023 250 q 1011 297 1019 282 q 989 318 1002 311 l 696 489 l 985 654 q 1015 683 1007 667 q 1022 716 1023 700 q 1011 747 1021 733 q 989 770 1002 762 l 602 993 q 569 1002 587 1003 q 538 994 550 1001 l 536 993 q 524 986 534 991 q 492 967 514 981 q 426 929 469 954 q 314 865 382 904 q 149 768 247 825 l 150 770 q 125 740 131 757 q 121 708 119 724 q 133 678 123 692 q 153 659 142 664 l 449 489 l 147 317 q 126 290 132 304 q 120 260 119 275 q 125 237 121 244 q 130 230 130 230 m 306 262 q 376 303 345 285 q 439 341 408 322 q 502 378 469 359 q 571 418 534 397 l 838 262 q 767 221 799 240 q 703 185 734 203 q 640 148 672 167 q 571 109 608 130 l 306 262 m 306 714 q 376 755 345 736 q 439 792 408 774 q 502 830 469 811 q 571 869 534 848 q 705 792 642 829 q 838 714 768 754 q 767 673 799 692 q 703 636 734 654 q 640 599 672 618 q 571 559 608 581 l 306 714 "},"9":{"ha":1156,"x_min":110,"x_max":1023,"o":"m 120 688 q 142 665 128 675 q 490 465 315 566 q 838 265 664 365 l 570 110 l 210 318 q 163 324 187 330 q 125 296 138 318 q 121 251 114 275 q 149 211 129 227 l 532 -12 q 572 -21 550 -22 q 611 -9 594 -19 l 991 210 q 1018 232 1013 221 q 1023 256 1023 242 l 1023 713 q 1014 745 1023 724 q 991 771 1004 766 l 603 994 q 566 1005 581 1007 q 541 996 551 1002 l 149 771 q 119 744 127 758 q 111 716 110 730 q 115 695 111 701 q 120 688 120 688 m 304 717 l 571 869 l 900 677 q 899 525 900 597 q 899 372 899 452 q 746 460 819 418 q 600 545 672 503 q 455 630 528 587 q 304 717 382 672 "},"\r":{"ha":694,"x_min":0,"x_max":0,"o":""},"\u0000":{"ha":0,"x_min":0,"x_max":0,"o":""}," ":{"ha":694,"x_min":0,"x_max":0,"o":""},"!":{"ha":1156,"x_min":507,"x_max":648,"o":"m 507 41 q 528 -8 507 12 q 578 -29 549 -29 q 628 -8 607 -29 q 648 41 648 12 q 628 92 648 71 q 578 113 607 113 q 528 92 549 113 q 507 41 507 71 m 515 265 q 533 222 515 241 q 578 203 551 203 q 622 222 604 203 q 640 265 640 241 l 640 936 q 621 981 640 962 q 578 999 602 999 q 533 981 551 999 q 515 936 515 962 l 515 265 "},"#":{"ha":1156,"x_min":58,"x_max":1095,"o":"m 93 432 q 137 405 117 418 q 182 379 158 393 q 157 335 167 351 q 131 292 146 319 q 123 243 117 269 q 153 205 130 218 q 184 197 169 197 q 239 228 219 197 l 292 318 q 365 276 330 296 q 433 235 400 256 q 501 196 467 215 q 574 154 535 176 q 548 110 558 126 q 522 65 538 93 q 515 17 509 41 q 545 -21 522 -7 q 575 -28 562 -28 q 629 1 610 -28 l 682 93 q 725 66 705 79 q 766 43 745 54 q 785 35 775 37 q 802 32 795 32 q 856 62 836 32 q 861 111 867 86 q 832 149 854 135 l 743 200 l 907 485 l 996 431 q 1026 424 1013 424 q 1080 453 1061 424 q 1088 501 1095 476 q 1059 539 1081 526 q 1014 565 1035 553 q 970 591 994 578 l 1021 681 q 1026 728 1032 704 q 997 765 1019 753 q 949 772 974 778 q 913 743 925 766 l 861 653 l 576 817 q 603 861 591 844 q 629 905 614 878 q 635 954 642 929 q 607 990 629 978 q 559 997 583 1003 q 522 968 534 990 q 496 924 509 945 q 469 879 483 903 q 425 905 441 895 q 380 930 408 915 q 332 937 357 943 q 296 908 308 930 q 289 859 282 885 q 319 822 296 833 l 318 823 l 408 772 q 327 628 364 694 q 244 486 289 562 q 200 512 216 501 q 155 539 183 524 q 107 545 132 551 q 71 517 83 539 q 64 469 58 493 q 93 432 71 444 m 353 427 l 515 710 l 800 546 l 635 262 q 561 305 596 285 q 493 345 526 325 q 426 385 460 366 q 353 427 391 404 "},"$":{"ha":1156,"x_min":118,"x_max":1034,"o":"m 151 661 q 288 583 221 621 q 406 515 345 551 q 513 453 468 479 l 513 146 l 214 317 q 168 321 192 328 q 131 293 143 315 q 124 245 118 269 q 153 208 130 220 l 549 -20 q 573 -30 562 -28 q 599 -22 583 -32 l 1000 210 q 1018 228 1010 215 q 1028 257 1026 241 q 1022 289 1029 272 q 993 318 1014 306 l 637 524 l 637 831 l 935 659 q 966 652 951 652 q 997 660 982 652 q 1021 684 1013 668 l 1019 682 q 1026 729 1034 704 q 997 768 1019 755 l 606 993 q 545 991 575 1007 l 150 766 q 120 715 122 747 q 151 661 118 682 m 309 714 l 513 832 l 513 596 l 309 714 m 637 144 l 637 380 l 842 262 q 736 201 781 228 q 637 144 692 175 "},"%":{"ha":1156,"x_min":118,"x_max":1043,"o":"m 118 711 q 139 661 118 682 q 189 640 160 640 q 240 661 220 640 q 261 711 261 682 q 240 763 261 742 q 189 783 220 783 q 139 763 160 783 q 118 711 118 742 m 136 229 l 135 231 q 158 206 142 215 q 189 197 174 197 q 224 208 207 197 l 221 207 l 1003 659 q 1031 695 1025 671 q 1025 743 1037 720 q 988 769 1014 764 q 940 765 962 774 l 158 314 q 130 277 136 301 q 136 229 124 253 m 900 260 q 921 210 900 231 q 971 189 942 189 q 1022 210 1002 189 q 1043 260 1043 231 q 1022 311 1043 290 q 971 332 1002 332 q 921 311 942 332 q 900 260 900 290 "},"&":{"ha":1156,"x_min":107,"x_max":1417,"o":"m 149 657 l 444 488 l 151 319 q 125 292 134 307 q 117 260 117 277 q 125 230 117 244 q 151 204 134 215 q 342 94 248 147 q 532 -17 436 40 q 567 -25 550 -24 q 600 -17 585 -26 l 957 189 l 1317 -20 q 1349 -26 1333 -26 q 1402 3 1383 -26 q 1409 53 1417 26 q 1378 90 1402 79 l 1379 89 l 1079 261 l 1379 433 q 1409 471 1401 447 q 1402 518 1416 494 q 1364 545 1390 539 q 1317 541 1338 551 q 1137 437 1226 489 q 957 332 1047 385 l 690 488 q 767 532 732 511 q 838 572 803 553 q 908 612 872 591 q 985 657 945 633 q 1007 680 999 665 q 1016 710 1015 694 q 1009 743 1017 726 q 983 770 1002 759 l 595 994 q 565 1002 581 1003 q 539 994 550 1001 l 490 966 q 374 900 454 946 q 146 768 293 853 q 113 710 107 742 q 149 657 118 678 m 300 261 q 371 302 339 283 q 434 339 403 321 q 497 377 465 358 q 567 416 530 395 q 700 339 637 376 q 832 261 763 301 l 567 107 l 300 261 m 300 713 q 371 753 339 734 q 434 791 403 772 q 497 828 465 810 q 567 868 530 847 q 700 790 637 828 q 832 713 763 753 q 761 672 793 690 q 699 635 729 653 q 636 598 668 616 q 567 558 604 579 l 300 713 "},"'":{"ha":1156,"x_min":515,"x_max":640,"o":"m 515 734 q 533 690 515 708 q 578 672 551 672 q 622 690 604 672 q 640 734 640 708 l 640 937 q 622 981 640 961 q 578 1000 604 1000 q 533 981 551 1000 q 515 937 515 961 l 515 734 "},"(":{"ha":1156,"x_min":131,"x_max":652,"o":"m 131 256 q 139 228 131 237 q 167 204 147 218 l 553 -21 q 585 -28 569 -28 q 615 -20 600 -28 q 639 4 631 -12 l 637 3 q 645 52 652 26 q 614 89 637 78 l 615 87 l 256 296 l 256 676 l 615 884 q 644 920 637 896 q 637 968 650 944 q 601 994 627 989 q 553 990 575 1000 l 163 765 q 137 738 143 754 q 131 711 131 721 l 131 256 "},")":{"ha":1156,"x_min":510,"x_max":1031,"o":"m 524 3 l 522 4 q 546 -19 530 -11 q 576 -28 561 -28 q 608 -21 591 -28 l 994 204 q 1022 228 1014 218 q 1031 256 1031 237 l 1031 711 q 1025 738 1031 721 q 999 765 1019 754 l 608 990 q 560 995 586 1000 q 524 968 534 989 q 517 920 511 945 q 546 884 524 896 l 905 676 l 905 296 l 546 87 l 547 89 q 517 52 524 78 q 524 3 510 26 "},"*":{"ha":1156,"x_min":127,"x_max":1043,"o":"m 140 228 q 195 199 159 199 q 224 205 207 199 l 522 378 l 522 35 q 540 -8 522 11 q 585 -28 558 -28 q 629 -8 611 -28 q 647 35 647 11 l 647 380 l 945 205 q 975 199 962 199 q 1007 207 992 199 q 1031 231 1023 215 l 1029 229 q 1036 277 1043 252 q 1007 315 1029 302 q 858 400 930 358 q 708 486 785 441 l 1007 659 q 1036 695 1029 671 q 1029 743 1042 720 q 992 771 1017 765 q 945 766 968 777 l 647 593 l 647 937 q 629 982 647 964 q 585 1000 611 1000 q 540 982 558 1000 q 522 937 522 964 l 522 596 l 224 766 q 177 772 201 778 q 140 743 153 766 q 134 695 127 720 q 163 659 140 671 l 461 488 l 163 315 q 134 276 140 301 q 140 228 127 252 "},"+":{"ha":1156,"x_min":121,"x_max":1028,"o":"m 121 486 q 139 442 121 460 q 183 424 157 424 l 511 424 l 511 35 q 529 -10 511 8 q 574 -28 547 -28 q 618 -10 600 -28 q 636 35 636 8 l 636 424 l 965 424 q 1008 442 989 424 q 1028 486 1028 460 q 1008 531 1028 513 q 965 549 989 549 l 636 549 l 636 937 q 618 982 636 964 q 574 1000 600 1000 q 529 982 547 1000 q 511 937 511 964 l 511 549 l 183 549 q 139 531 157 549 q 121 486 121 513 "},",":{"ha":1156,"x_min":505,"x_max":1047,"o":"m 517 5 q 574 -26 538 -26 q 590 -24 582 -26 q 604 -18 597 -21 l 1010 216 q 1040 255 1034 232 q 1035 302 1047 279 l 1034 304 q 995 335 1021 328 q 946 326 970 342 l 947 326 l 542 93 l 543 94 q 512 55 519 81 q 517 5 505 29 "},"-":{"ha":1156,"x_min":121,"x_max":1028,"o":"m 121 484 q 140 439 121 457 q 183 421 159 421 l 965 421 q 1010 439 991 421 q 1028 484 1028 457 q 1010 528 1028 510 q 965 546 991 546 l 183 546 q 140 528 160 546 q 121 484 121 510 "},".":{"ha":1156,"x_min":509,"x_max":650,"o":"m 509 45 q 529 -5 509 16 q 579 -26 550 -26 q 629 -5 608 -26 q 650 45 650 16 q 629 95 650 74 q 579 115 608 115 q 529 95 550 115 q 509 45 509 74 "},"/":{"ha":1156,"x_min":119,"x_max":1031,"o":"m 131 232 l 129 233 q 152 209 136 218 q 183 200 168 200 q 218 211 201 200 l 215 210 l 997 661 q 1025 698 1019 673 q 1019 746 1031 722 q 983 772 1008 767 q 935 768 957 778 l 153 317 q 125 280 131 304 q 131 232 119 256 "},":":{"ha":1156,"x_min":895,"x_max":1036,"o":"m 895 261 q 915 211 895 232 q 965 191 936 191 q 1015 211 994 191 q 1036 261 1036 232 q 1015 311 1036 290 q 965 332 994 332 q 915 311 936 332 q 895 261 895 290 m 895 704 q 915 654 895 675 q 965 633 936 633 q 1015 654 994 633 q 1036 704 1036 675 q 1015 754 1036 733 q 965 775 994 775 q 915 754 936 775 q 895 704 895 733 "},";":{"ha":1156,"x_min":510,"x_max":1034,"o":"m 522 7 l 521 8 q 544 -16 528 -7 q 575 -25 559 -25 q 610 -14 593 -25 l 607 -16 l 993 208 q 1021 247 1015 222 q 1017 294 1027 271 q 980 320 1004 314 q 932 315 956 326 l 545 92 q 516 55 522 79 q 522 7 510 31 m 892 708 q 912 658 892 679 q 962 637 933 637 q 1013 658 991 637 q 1034 708 1034 679 q 1013 758 1034 737 q 962 779 991 779 q 912 758 933 779 q 892 708 892 737 "},"<":{"ha":1156,"x_min":522,"x_max":1043,"o":"m 532 453 q 555 432 540 439 l 945 205 q 975 199 962 199 q 1007 207 992 199 q 1031 231 1023 215 l 1029 229 q 1036 277 1043 252 q 1007 315 1029 302 q 858 400 930 358 q 708 486 785 441 l 1007 659 q 1036 695 1029 671 q 1029 743 1042 720 q 992 771 1017 765 q 945 766 968 777 l 554 541 q 530 516 538 532 q 523 485 522 501 q 528 461 524 468 q 532 453 532 453 "},"=":{"ha":1156,"x_min":114,"x_max":1021,"o":"m 114 261 q 133 218 114 237 q 176 199 153 199 l 958 199 q 1003 218 985 199 q 1021 261 1021 237 q 1003 306 1021 288 q 958 323 985 323 l 176 323 q 133 306 153 323 q 114 261 114 288 m 114 713 q 133 668 114 686 q 176 650 153 650 l 958 650 q 1003 668 985 650 q 1021 713 1021 686 q 1003 757 1021 739 q 958 775 985 775 l 176 775 q 133 757 153 775 q 114 713 114 739 "},">":{"ha":1156,"x_min":127,"x_max":647,"o":"m 140 228 q 195 199 159 199 q 224 205 207 199 l 616 433 q 638 456 629 441 q 647 486 647 471 q 638 517 647 501 q 616 541 629 532 l 224 766 q 177 772 201 778 q 140 743 153 766 q 134 695 127 720 q 163 659 140 671 l 461 488 l 163 315 q 134 276 140 301 q 140 228 127 252 "},"?":{"ha":1156,"x_min":123,"x_max":1026,"o":"m 136 682 q 191 653 155 653 q 220 660 203 653 q 399 763 310 711 q 578 868 488 815 l 842 714 l 542 542 q 523 520 530 533 q 515 490 515 507 l 515 267 q 533 223 515 243 q 578 204 551 204 q 621 223 603 204 q 639 267 639 243 l 639 456 l 999 663 q 1019 685 1013 671 q 1025 714 1026 699 q 1017 745 1025 730 q 991 770 1008 760 l 607 991 q 578 1000 596 999 q 545 990 560 1001 l 158 768 q 130 730 136 754 q 136 682 123 706 m 505 43 q 526 -7 505 14 q 578 -28 547 -28 q 628 -7 607 -28 q 648 43 648 14 q 628 93 648 72 q 578 114 607 114 q 526 93 547 114 q 505 43 505 72 "},"@":{"ha":1156,"x_min":126,"x_max":1034,"o":"m 126 260 q 138 223 126 233 q 163 205 149 214 l 549 -20 q 581 -26 565 -26 q 611 -18 596 -26 q 635 5 627 -10 l 633 4 q 639 51 646 26 q 611 89 632 75 l 252 297 l 252 677 q 417 772 338 726 q 582 867 497 818 q 746 771 667 818 q 908 676 825 725 l 908 297 l 829 250 l 796 621 q 765 667 791 654 q 710 672 738 680 q 617 635 671 657 q 516 593 564 612 q 434 560 468 574 l 400 546 q 377 529 387 541 q 362 504 367 518 q 360 473 357 489 q 378 444 364 458 q 445 381 407 416 q 521 308 482 346 q 597 233 559 269 q 665 169 635 197 q 713 122 694 140 q 732 104 732 104 q 774 87 753 87 q 810 96 796 87 l 1003 208 q 1024 230 1015 215 q 1034 257 1034 245 l 1034 713 q 1021 747 1031 730 q 996 770 1011 763 l 614 990 q 574 998 595 1000 q 551 993 554 996 l 158 766 q 135 740 143 754 q 126 713 127 725 l 126 260 m 536 465 l 681 525 l 699 310 l 536 465 "},"A":{"ha":1156,"x_min":140,"x_max":1040,"o":"m 140 268 q 158 223 140 241 q 203 205 176 205 q 247 223 229 205 q 265 268 265 241 l 265 607 q 342 563 307 583 q 412 524 378 543 q 480 484 446 504 q 557 440 515 464 q 589 431 572 432 q 623 440 606 429 q 769 524 694 482 q 916 607 844 566 l 916 268 q 933 223 916 241 q 978 205 951 205 q 1022 223 1004 205 q 1040 268 1040 241 l 1040 718 q 1033 749 1040 737 q 1011 768 1025 760 l 621 993 q 589 1001 606 1002 q 561 993 572 1000 l 171 770 q 140 729 140 751 l 140 268 m 325 715 l 590 867 q 725 791 661 827 q 856 715 788 755 l 590 564 q 456 640 519 604 q 325 715 393 675 m 519 45 q 540 -5 519 16 q 590 -26 561 -26 q 640 -5 619 -26 q 661 45 661 16 q 640 95 661 74 q 590 115 619 115 q 540 95 561 115 q 519 45 519 74 "},"B":{"ha":1156,"x_min":140,"x_max":1047,"o":"m 140 264 q 155 225 140 236 q 179 207 170 214 l 567 -18 q 595 -24 579 -25 q 624 -17 612 -24 l 1015 211 l 1014 210 q 1047 264 1047 225 q 1017 318 1047 298 l 1015 318 l 717 490 l 1015 663 l 1014 661 q 1047 715 1047 677 q 1015 770 1047 749 l 624 994 q 591 1001 608 1002 q 562 994 573 1001 l 174 771 q 140 715 140 749 l 140 264 m 265 301 l 265 679 l 532 833 l 532 146 q 461 187 493 168 q 398 224 429 205 q 335 261 367 243 q 265 301 302 280 m 657 146 l 657 382 q 761 321 717 347 q 860 264 806 294 l 657 146 m 657 597 l 657 833 q 761 772 717 799 q 860 715 806 746 q 804 683 829 699 q 755 654 779 668 q 708 627 732 640 q 657 597 684 613 "},"C":{"ha":1156,"x_min":132,"x_max":1038,"o":"m 132 265 q 141 235 132 250 q 163 211 151 219 l 554 -17 q 585 -24 571 -24 q 602 -22 595 -24 q 615 -17 608 -20 l 1007 211 q 1036 248 1029 224 q 1038 265 1038 258 q 1031 294 1038 280 q 991 325 1016 318 q 976 327 983 327 q 945 318 960 327 l 647 147 l 647 833 q 725 789 689 810 q 797 748 761 768 q 868 707 832 728 q 945 663 905 686 q 973 656 958 656 q 991 658 982 656 q 1031 685 1019 664 q 1038 715 1038 700 q 1036 732 1038 724 q 1007 770 1029 757 l 615 996 q 584 1004 600 1004 q 554 996 569 1004 q 460 942 510 971 q 358 883 410 913 q 257 824 307 852 q 163 770 208 795 q 141 746 150 761 q 132 717 132 730 l 132 265 m 257 301 l 257 679 q 390 757 328 720 q 522 835 453 795 l 522 146 q 451 187 484 168 q 389 224 419 205 q 326 261 358 243 q 257 301 294 280 "},"D":{"ha":1156,"x_min":136,"x_max":1043,"o":"m 138 246 q 167 210 144 222 l 558 -18 q 586 -27 570 -26 q 614 -21 603 -28 l 1011 210 l 1010 208 q 1034 231 1025 215 q 1043 264 1043 247 l 1043 715 q 1010 770 1043 754 l 1011 768 l 615 997 q 588 1002 601 1002 q 562 997 574 1002 l 167 768 q 138 731 144 755 q 136 715 136 723 q 144 684 136 699 q 181 657 155 663 q 199 655 191 655 q 229 661 215 655 l 526 832 l 526 146 q 449 190 485 170 q 377 231 412 211 q 306 272 342 252 q 229 317 269 293 q 199 323 215 323 q 181 321 191 323 q 144 294 155 315 q 136 262 136 279 q 138 246 136 254 m 652 144 l 652 833 q 722 792 690 811 q 785 755 754 774 q 849 717 817 736 q 918 677 881 699 l 918 300 q 784 222 847 260 q 652 144 721 184 "},"E":{"ha":1156,"x_min":126,"x_max":1034,"o":"m 126 265 q 157 211 126 231 l 549 -16 l 559 -20 q 581 -24 568 -24 q 593 -22 587 -24 q 606 -18 599 -21 q 614 -13 611 -16 q 619 -8 616 -11 l 1003 211 q 1031 250 1023 225 q 1034 266 1034 258 q 1025 296 1034 281 q 988 324 1013 318 q 972 326 980 326 q 940 318 956 326 q 760 215 850 267 q 581 110 671 163 l 313 265 l 611 437 l 610 436 q 643 490 643 452 q 611 545 643 524 l 313 715 l 581 869 l 940 663 q 970 656 954 656 q 988 659 979 656 q 1025 685 1014 664 q 1034 715 1034 699 q 1031 731 1034 722 q 1003 770 1024 755 l 610 996 q 579 1004 594 1004 q 549 996 564 1004 l 158 770 l 160 771 q 126 717 126 755 q 157 663 126 682 l 458 490 l 158 318 l 160 319 q 126 265 126 304 "},"F":{"ha":1156,"x_min":127,"x_max":1035,"o":"m 127 262 q 140 228 127 243 q 163 208 152 214 l 550 -18 q 582 -25 566 -25 q 613 -17 597 -25 q 636 7 628 -9 l 635 5 q 643 37 643 21 q 641 54 643 45 q 612 90 635 78 l 313 262 l 612 435 q 641 471 635 447 q 643 488 643 479 q 635 519 643 504 q 598 546 624 541 q 580 548 589 548 q 550 542 564 548 l 253 371 l 253 679 l 582 868 l 942 659 q 971 651 956 651 q 988 654 979 652 q 1026 684 1013 661 q 1035 715 1035 699 q 1033 731 1035 723 q 1004 768 1027 755 l 612 993 l 614 993 q 582 1003 599 1003 q 549 993 564 1004 l 550 993 l 158 768 q 127 714 127 749 l 127 262 "},"G":{"ha":1156,"x_min":119,"x_max":1027,"o":"m 119 262 q 150 208 119 228 l 542 -18 q 574 -25 558 -25 q 603 -18 586 -25 l 1000 211 q 1019 233 1011 220 q 1026 262 1026 245 q 1018 294 1026 281 q 999 315 1010 307 l 996 317 l 604 542 q 574 548 590 548 q 556 546 566 548 q 519 519 530 541 q 511 488 511 504 q 513 471 511 479 q 542 435 519 447 l 840 262 q 769 221 802 240 q 706 184 737 203 q 643 147 675 165 q 574 107 611 128 l 244 300 l 244 679 l 574 868 l 933 659 q 963 651 947 651 q 980 654 971 651 q 1018 684 1004 660 q 1027 715 1027 699 q 1024 731 1027 723 q 996 768 1018 756 l 604 993 l 606 993 q 573 1003 590 1003 q 541 993 556 1004 l 542 993 l 150 768 q 119 714 119 749 l 119 262 "},"H":{"ha":1156,"x_min":123,"x_max":1031,"o":"m 123 265 q 141 221 123 239 q 186 203 159 203 q 231 221 212 203 q 249 265 249 239 l 249 608 q 402 520 328 562 q 548 436 476 478 q 693 353 621 395 q 844 265 766 311 l 546 93 q 517 56 524 81 q 515 40 515 48 q 524 8 515 24 l 522 9 q 545 -15 529 -5 q 576 -24 561 -24 q 611 -12 594 -23 l 608 -14 l 999 211 q 1007 217 1006 215 q 1011 221 1008 218 l 1021 232 l 1029 249 q 1028 252 1029 254 l 1031 264 l 1031 265 l 1031 717 q 1011 761 1031 743 q 968 779 991 779 q 924 761 942 779 q 905 717 905 743 l 905 372 l 310 717 l 608 889 q 637 926 631 901 q 639 942 639 934 q 631 974 639 958 q 594 1000 620 994 q 576 1002 585 1002 q 546 996 560 1002 l 151 770 l 147 765 q 131 747 136 757 q 125 726 125 736 l 123 718 l 123 265 "},"I":{"ha":1156,"x_min":504,"x_max":646,"o":"m 504 932 q 525 882 504 903 q 575 861 546 861 q 625 882 604 861 q 646 932 646 903 q 625 982 646 961 q 575 1003 604 1003 q 525 982 546 1003 q 504 932 504 961 m 513 37 q 531 -7 513 11 q 575 -25 549 -25 q 618 -7 599 -25 q 637 37 637 11 l 637 708 q 618 751 637 732 q 575 771 599 771 q 531 751 549 771 q 513 708 513 732 l 513 37 "},"J":{"ha":1156,"x_min":125,"x_max":1033,"o":"m 127 250 q 157 211 134 224 l 547 -14 q 579 -21 562 -22 q 610 -11 596 -20 q 633 10 624 -3 q 642 40 642 23 l 642 833 l 939 661 q 970 654 956 654 q 1023 685 1004 654 q 1033 717 1033 701 q 1031 732 1033 725 q 1002 771 1024 758 l 612 994 q 576 1008 591 1008 q 571 1007 574 1008 q 555 1002 562 1006 l 157 771 q 129 734 135 758 q 127 718 127 726 q 135 686 127 702 l 134 688 q 156 663 140 672 q 189 654 172 654 q 218 661 201 654 l 517 833 l 517 149 q 439 193 475 172 q 367 234 403 214 q 296 275 332 254 q 220 319 260 296 q 190 326 205 326 q 172 323 181 326 q 135 297 146 318 q 125 266 125 282 q 127 250 125 258 "},"K":{"ha":1156,"x_min":126,"x_max":1034,"o":"m 126 267 q 135 232 126 244 q 163 210 144 220 l 546 -12 q 578 -22 561 -21 q 609 -15 595 -22 q 633 5 624 -8 q 642 39 642 19 q 642 211 642 131 q 643 383 643 292 l 940 212 l 939 212 q 971 204 951 204 q 1025 233 1005 204 q 1034 266 1034 250 q 1032 281 1034 273 q 1003 319 1025 306 l 703 492 l 1003 664 q 1031 701 1025 676 q 1033 717 1033 709 q 1025 749 1033 733 q 988 775 1014 770 q 970 777 979 777 q 940 771 954 777 l 643 600 l 643 943 q 631 986 643 972 q 604 1004 619 1000 q 573 1005 589 1008 q 550 997 558 1001 l 163 774 q 135 742 143 761 q 126 711 126 724 l 126 267 m 252 302 l 252 681 q 386 759 322 721 q 518 836 449 796 l 518 147 q 447 188 479 170 q 384 225 415 207 q 321 263 353 244 q 252 302 289 281 "},"L":{"ha":1156,"x_min":514,"x_max":1030,"o":"m 514 40 q 525 2 514 16 q 552 -16 536 -11 q 586 -18 568 -21 q 615 -8 603 -15 l 999 212 q 1027 250 1021 227 q 1030 268 1030 259 q 1023 296 1030 282 l 1022 297 q 983 326 1008 319 q 967 328 975 328 q 936 319 951 328 q 787 235 864 279 q 639 149 711 190 l 639 943 q 621 988 639 970 q 576 1006 603 1006 q 533 988 553 1006 q 514 943 514 970 l 514 40 "},"M":{"ha":1156,"x_min":134,"x_max":1025,"o":"m 134 268 q 152 223 134 241 q 196 205 170 205 q 239 223 221 205 q 257 268 257 241 l 257 604 l 553 433 q 558 431 555 432 q 564 429 561 429 q 573 427 570 427 q 579 428 576 428 q 588 428 585 428 q 599 431 592 428 q 608 434 606 433 q 612 437 610 435 q 757 521 684 478 q 901 604 831 564 l 901 268 q 919 223 901 241 q 964 205 937 205 q 1007 223 989 205 q 1025 268 1025 241 l 1025 721 q 1015 754 1025 742 q 990 771 1004 766 q 959 772 975 775 q 930 762 943 769 l 579 561 l 564 570 q 523 592 549 578 q 465 626 497 607 q 400 665 433 646 q 222 770 322 711 q 184 777 200 779 q 157 767 168 775 q 140 746 146 758 q 135 724 135 733 l 135 667 q 135 612 135 646 q 134 531 135 579 q 134 418 134 484 q 134 268 134 353 m 509 932 q 529 883 509 903 q 579 863 550 863 q 629 883 608 863 q 650 932 650 903 q 629 983 650 964 q 579 1003 608 1003 q 529 983 550 1003 q 509 932 509 964 "},"N":{"ha":1156,"x_min":136,"x_max":1028,"o":"m 136 262 q 154 219 136 237 q 199 201 172 201 q 242 219 224 201 q 260 262 260 237 l 260 600 l 935 208 q 966 200 951 201 q 997 208 982 200 q 1020 233 1011 218 q 1028 262 1028 247 l 1028 707 q 1010 750 1028 732 q 966 768 991 768 q 922 750 940 768 q 904 707 904 732 l 904 370 l 229 760 q 198 768 215 768 q 167 760 180 768 q 136 707 136 740 l 136 262 m 511 41 q 532 -8 511 12 q 582 -29 553 -29 q 632 -8 611 -29 q 653 41 653 12 q 632 92 653 71 q 582 113 611 113 q 532 92 553 113 q 511 41 511 71 "},"O":{"ha":1156,"x_min":131,"x_max":1038,"o":"m 131 262 q 140 230 131 245 q 164 207 149 214 l 163 208 l 553 -20 q 585 -26 569 -26 q 614 -20 597 -26 l 1007 208 q 1028 232 1019 216 q 1038 262 1038 247 l 1038 714 q 1029 744 1038 729 q 1007 766 1021 758 l 614 993 q 583 1001 598 1001 q 553 993 568 1001 l 163 766 l 164 768 q 140 745 149 761 q 131 714 131 730 l 131 262 m 256 297 l 256 677 q 421 772 342 726 q 586 867 501 818 q 750 771 671 818 q 913 676 829 725 l 913 298 l 586 109 l 256 297 m 513 488 q 533 437 513 458 q 585 416 554 416 q 635 437 614 416 q 656 488 656 458 q 635 537 656 517 q 585 558 614 558 q 533 537 554 558 q 513 488 513 517 "},"P":{"ha":1156,"x_min":126,"x_max":1039,"o":"m 126 262 q 130 235 126 248 q 153 211 134 222 l 546 -16 q 580 -26 563 -26 q 614 -16 597 -26 q 642 36 642 3 l 642 453 l 1015 668 q 1031 686 1025 673 q 1038 712 1038 699 q 1033 740 1039 726 q 1015 760 1027 753 l 610 993 q 577 1002 591 1004 q 549 993 562 1000 l 154 766 q 135 751 143 760 q 126 718 126 742 l 126 262 m 252 298 l 252 677 l 517 832 l 517 144 q 446 185 478 167 q 383 222 414 204 q 321 259 353 240 q 252 298 289 277 m 642 596 l 642 832 q 746 771 701 798 q 844 714 790 745 q 789 682 814 697 q 740 653 764 667 q 692 625 717 639 q 642 596 668 612 "},"Q":{"ha":1156,"x_min":127,"x_max":1035,"o":"m 127 265 q 158 211 127 231 l 550 -14 l 547 -12 q 582 -24 564 -24 q 615 -12 598 -23 l 612 -14 l 1002 210 q 1027 234 1019 222 q 1035 265 1035 245 l 1035 717 q 1027 747 1035 733 q 1008 768 1019 760 l 611 996 q 580 1004 595 1004 q 550 996 564 1004 l 158 771 q 127 717 127 751 l 127 265 m 253 300 l 253 679 l 582 872 q 746 775 667 823 q 909 679 825 728 l 909 374 q 832 418 868 397 q 761 459 796 439 q 689 500 725 479 q 612 545 652 521 q 583 551 598 551 q 564 549 574 551 q 528 522 538 543 q 519 490 519 507 q 522 474 519 482 q 550 437 528 450 l 848 265 l 583 111 l 253 300 "},"R":{"ha":1156,"x_min":129,"x_max":1036,"o":"m 129 261 q 142 223 131 237 q 164 204 153 210 l 551 -18 l 549 -17 q 582 -28 565 -28 q 616 -17 598 -28 q 644 35 644 1 l 644 378 l 942 205 q 974 199 958 199 q 1004 207 989 199 q 1028 231 1020 215 l 1026 229 q 1036 261 1036 245 q 1034 277 1036 269 q 1004 315 1027 302 q 855 400 928 358 q 705 486 782 441 l 1007 660 q 1029 684 1022 669 q 1036 713 1036 699 q 1029 742 1036 728 q 1010 762 1022 755 l 612 991 q 576 999 595 1003 q 551 991 557 996 l 157 765 q 137 745 144 754 q 129 714 129 736 l 129 261 m 254 297 l 254 675 q 388 753 325 715 q 519 831 450 791 l 519 143 q 449 184 481 165 q 386 221 416 203 q 323 257 355 239 q 254 297 292 276 m 644 595 l 644 831 q 750 770 705 796 q 848 713 794 743 q 743 651 787 677 q 644 595 699 625 "},"S":{"ha":1156,"x_min":125,"x_max":1033,"o":"m 131 687 q 153 663 137 672 l 847 262 q 777 221 808 240 q 713 185 745 203 q 650 148 682 167 q 581 109 618 130 l 218 317 q 189 323 204 323 q 172 321 180 323 q 135 293 147 315 q 126 260 126 277 q 128 245 126 253 q 157 208 134 220 l 546 -16 q 562 -24 555 -24 q 579 -26 568 -26 q 596 -24 588 -26 q 612 -17 604 -24 l 1000 207 q 1023 233 1017 216 q 1029 266 1029 249 q 1022 296 1029 282 q 1004 315 1015 310 l 313 714 q 383 755 351 736 q 446 792 415 774 q 508 828 476 810 q 578 868 541 847 l 939 659 q 971 652 956 652 q 1025 681 1005 652 q 1033 713 1033 696 q 1031 730 1033 722 q 1002 768 1025 755 l 604 997 q 587 1002 600 999 q 549 991 574 1005 l 154 766 q 135 745 142 758 q 126 716 127 732 q 128 694 125 701 q 131 687 131 687 "},"T":{"ha":1156,"x_min":125,"x_max":1031,"o":"m 127 730 q 125 713 125 722 q 134 681 125 696 q 187 652 151 652 q 216 659 199 652 l 515 831 l 515 36 q 533 -7 515 12 q 578 -26 551 -26 q 622 -7 604 -26 q 640 36 640 12 l 640 831 q 718 786 682 807 q 790 745 754 765 q 861 704 825 725 q 937 660 897 684 q 967 653 951 653 q 985 655 976 653 q 1022 682 1011 661 q 1031 713 1031 697 q 1029 730 1031 722 q 1000 768 1023 755 l 611 991 q 575 1001 595 1003 q 549 994 555 998 l 155 768 q 127 730 134 754 "},"U":{"ha":1156,"x_min":110,"x_max":1047,"o":"m 110 275 q 139 220 110 238 l 546 -14 l 543 -12 q 578 -24 559 -24 q 612 -12 595 -23 l 610 -14 l 1015 220 q 1047 275 1047 241 l 1047 743 q 1029 788 1047 770 q 983 807 1011 807 q 938 788 957 807 q 920 743 920 770 l 920 311 l 578 114 l 236 311 l 236 743 q 218 788 236 770 q 172 807 200 807 q 128 788 146 807 q 110 743 110 770 l 110 275 m 505 509 q 526 457 505 478 q 578 436 547 436 q 630 457 608 436 q 652 509 652 478 q 630 561 652 539 q 578 582 608 582 q 526 561 547 582 q 505 509 505 539 "},"V":{"ha":1156,"x_min":110,"x_max":1047,"o":"m 110 275 q 139 220 110 238 l 546 -14 l 543 -12 q 578 -24 559 -24 q 612 -12 595 -23 l 610 -14 l 1015 220 q 1047 275 1047 241 l 1047 743 q 1029 788 1047 770 q 983 807 1011 807 q 938 788 957 807 q 920 743 920 770 l 920 311 l 578 114 l 236 311 l 236 743 q 218 788 236 770 q 172 807 200 807 q 128 788 146 807 q 110 743 110 770 l 110 275 "},"W":{"ha":1156,"x_min":117,"x_max":1023,"o":"m 117 264 q 125 225 117 240 q 147 202 134 210 q 175 195 160 195 q 204 205 191 196 q 356 293 278 249 q 509 380 433 338 l 509 37 q 521 1 509 14 q 548 -17 533 -12 q 578 -22 564 -22 q 597 -20 593 -22 l 993 210 q 1021 247 1015 222 q 1023 262 1023 255 q 1015 294 1023 279 q 979 323 1003 317 q 962 325 970 325 q 930 317 946 325 l 633 146 l 633 454 l 993 661 q 1021 698 1015 673 q 1023 714 1023 706 q 1015 746 1023 730 q 979 772 1004 766 q 960 774 969 774 q 930 768 945 774 l 633 597 l 633 940 q 615 985 633 966 q 571 1003 597 1003 q 527 985 545 1003 q 509 940 509 966 l 509 525 l 241 371 l 241 715 q 223 759 241 739 q 179 778 205 778 q 136 759 155 778 q 117 715 117 739 l 117 264 "},"X":{"ha":1156,"x_min":123,"x_max":1029,"o":"m 123 260 q 133 223 123 237 q 158 203 143 210 q 189 199 172 197 q 218 207 206 200 q 397 310 307 257 q 576 412 488 362 q 755 310 665 362 q 935 207 846 257 q 964 199 947 200 q 995 203 981 197 q 1020 223 1010 210 q 1029 260 1029 237 l 1029 711 q 1022 743 1029 729 q 1001 765 1014 757 q 972 773 989 774 q 937 764 956 773 l 576 557 l 215 764 q 181 774 197 774 q 152 765 164 774 q 131 743 139 757 q 123 711 123 730 l 123 260 m 249 367 l 249 603 q 353 542 309 568 q 452 485 397 515 l 249 367 m 505 46 q 526 -4 505 17 q 576 -25 547 -25 q 626 -4 606 -25 q 647 46 647 17 q 626 96 647 75 q 576 117 606 117 q 526 96 547 117 q 505 46 505 75 m 505 932 q 526 882 505 903 q 576 861 547 861 q 626 882 606 861 q 647 932 647 903 q 626 982 647 961 q 576 1003 606 1003 q 526 982 547 1003 q 505 932 505 961 m 701 485 q 752 514 728 500 q 800 542 777 528 q 848 571 823 555 q 904 603 873 586 l 904 367 l 701 485 "},"Y":{"ha":1156,"x_min":142,"x_max":1039,"o":"m 144 692 q 172 656 150 668 l 528 452 l 528 39 q 546 -6 528 12 q 590 -24 564 -24 q 635 -6 616 -24 q 653 39 653 12 l 653 452 l 1008 656 q 1037 692 1031 668 q 1039 709 1039 701 q 1031 741 1039 725 q 994 766 1020 762 q 977 768 985 768 q 946 762 960 768 l 590 558 l 233 762 l 235 762 q 203 772 220 772 q 186 770 195 772 q 149 739 159 763 l 150 741 q 142 709 142 725 q 144 692 142 701 m 519 933 q 540 883 519 904 q 590 863 561 863 q 640 883 619 863 q 661 933 661 904 q 640 983 661 962 q 590 1004 619 1004 q 540 983 561 1004 q 519 933 519 962 "},"Z":{"ha":1156,"x_min":110,"x_max":1028,"o":"m 116 691 q 142 664 122 676 q 293 578 216 621 q 444 490 369 535 l 144 318 q 116 281 122 306 q 114 265 114 273 q 122 233 114 249 l 121 235 q 143 211 127 220 q 175 201 159 201 q 210 212 193 201 l 207 211 q 387 314 297 262 q 567 419 477 366 l 833 264 l 534 92 q 506 54 513 78 q 504 37 504 45 q 513 5 504 21 q 567 -24 531 -24 q 596 -17 579 -24 l 997 216 q 1022 242 1015 228 q 1026 270 1028 256 q 1018 295 1025 283 q 1003 310 1011 306 q 884 378 941 345 q 781 437 835 406 q 689 490 726 468 l 989 663 l 987 661 q 1018 698 1011 672 q 1020 715 1020 707 q 1011 747 1020 732 q 975 774 1000 768 q 956 776 965 776 q 926 770 941 776 q 747 666 836 718 q 567 561 657 614 l 298 715 l 597 888 q 625 924 619 900 q 627 941 627 932 q 619 972 627 957 q 583 998 608 993 q 564 1000 573 1000 q 534 994 549 1000 l 146 771 q 124 749 134 762 q 112 721 114 736 q 113 699 110 707 q 116 691 116 691 "},"[":{"ha":1156,"x_min":131,"x_max":652,"o":"m 131 256 q 139 228 131 237 q 167 204 147 218 l 553 -21 q 585 -28 569 -28 q 615 -20 600 -28 q 639 4 631 -12 l 637 3 q 645 52 652 26 q 614 89 637 78 l 615 87 l 256 296 l 256 676 l 615 884 q 644 920 637 896 q 637 968 650 944 q 601 994 627 989 q 553 990 575 1000 l 163 765 q 137 738 143 754 q 131 711 131 721 l 131 256 "},"\\":{"ha":1156,"x_min":115,"x_max":1031,"o":"m 150 660 l 932 208 l 929 210 q 962 199 945 199 q 1017 229 997 199 q 1024 277 1031 253 q 994 315 1017 302 q 804 425 903 368 q 604 541 705 482 q 403 656 503 599 q 212 766 304 713 q 164 772 191 778 q 126 743 137 766 l 127 745 q 121 696 115 721 q 150 660 127 672 "},"]":{"ha":1156,"x_min":510,"x_max":1031,"o":"m 524 3 l 522 4 q 546 -19 530 -11 q 576 -28 561 -28 q 608 -21 591 -28 l 994 204 q 1022 228 1014 218 q 1031 256 1031 237 l 1031 711 q 1025 738 1031 721 q 999 765 1019 754 l 608 990 q 560 995 586 1000 q 524 968 534 989 q 517 920 511 945 q 546 884 524 896 l 905 676 l 905 296 l 546 87 l 547 89 q 517 52 524 78 q 524 3 510 26 "},"^":{"ha":1156,"x_min":120,"x_max":1036,"o":"m 132 684 q 155 660 140 668 q 186 652 170 652 q 203 654 196 652 q 216 659 210 656 q 397 762 307 710 q 578 867 488 814 l 937 659 q 968 652 954 652 q 1022 681 1002 652 q 1029 731 1036 704 q 999 768 1023 758 l 611 991 q 577 1001 596 1003 q 545 991 558 1000 l 157 768 q 127 731 134 757 q 132 684 120 706 "},"_":{"ha":1156,"x_min":109,"x_max":1015,"o":"m 109 256 q 128 213 109 232 q 171 193 147 193 l 953 193 q 997 213 979 193 q 1015 256 1015 232 q 997 300 1015 282 q 953 318 979 318 l 171 318 q 128 300 147 318 q 109 256 109 282 "},"`":{"ha":1156,"x_min":165,"x_max":478,"o":"m 203 1055 l 201 1057 l 378 953 q 410 946 394 946 q 464 975 444 946 q 470 1025 478 999 q 440 1063 463 1050 l 264 1164 q 216 1168 241 1174 q 179 1141 190 1162 q 172 1092 165 1118 q 203 1055 179 1066 "},"a":{"ha":1156,"x_min":140,"x_max":1040,"o":"m 140 268 q 158 223 140 241 q 203 205 176 205 q 247 223 229 205 q 265 268 265 241 l 265 607 q 342 563 307 583 q 412 524 378 543 q 480 484 446 504 q 557 440 515 464 q 589 431 572 432 q 623 440 606 429 q 769 524 694 482 q 916 607 844 566 l 916 268 q 933 223 916 241 q 978 205 951 205 q 1022 223 1004 205 q 1040 268 1040 241 l 1040 718 q 1033 749 1040 737 q 1011 768 1025 760 l 621 993 q 589 1001 606 1002 q 561 993 572 1000 l 171 770 q 140 729 140 751 l 140 268 m 325 715 l 590 867 q 725 791 661 827 q 856 715 788 755 l 590 564 q 456 640 519 604 q 325 715 393 675 m 519 45 q 540 -5 519 16 q 590 -26 561 -26 q 640 -5 619 -26 q 661 45 661 16 q 640 95 661 74 q 590 115 619 115 q 540 95 561 115 q 519 45 519 74 "},"b":{"ha":1156,"x_min":140,"x_max":1047,"o":"m 140 264 q 155 225 140 236 q 179 207 170 214 l 567 -18 q 595 -24 579 -25 q 624 -17 612 -24 l 1015 211 l 1014 210 q 1047 264 1047 225 q 1017 318 1047 298 l 1015 318 l 717 490 l 1015 663 l 1014 661 q 1047 715 1047 677 q 1015 770 1047 749 l 624 994 q 591 1001 608 1002 q 562 994 573 1001 l 174 771 q 140 715 140 749 l 140 264 m 265 301 l 265 679 l 532 833 l 532 146 q 461 187 493 168 q 398 224 429 205 q 335 261 367 243 q 265 301 302 280 m 657 146 l 657 382 q 761 321 717 347 q 860 264 806 294 l 657 146 m 657 597 l 657 833 q 761 772 717 799 q 860 715 806 746 q 804 683 829 699 q 755 654 779 668 q 708 627 732 640 q 657 597 684 613 "},"c":{"ha":1156,"x_min":132,"x_max":1038,"o":"m 132 265 q 141 235 132 250 q 163 211 151 219 l 554 -17 q 585 -24 571 -24 q 602 -22 595 -24 q 615 -17 608 -20 l 1007 211 q 1036 248 1029 224 q 1038 265 1038 258 q 1031 294 1038 280 q 991 325 1016 318 q 976 327 983 327 q 945 318 960 327 l 647 147 l 647 833 q 725 789 689 810 q 797 748 761 768 q 868 707 832 728 q 945 663 905 686 q 973 656 958 656 q 991 658 982 656 q 1031 685 1019 664 q 1038 715 1038 700 q 1036 732 1038 724 q 1007 770 1029 757 l 615 996 q 584 1004 600 1004 q 554 996 569 1004 q 460 942 510 971 q 358 883 410 913 q 257 824 307 852 q 163 770 208 795 q 141 746 150 761 q 132 717 132 730 l 132 265 m 257 301 l 257 679 q 390 757 328 720 q 522 835 453 795 l 522 146 q 451 187 484 168 q 389 224 419 205 q 326 261 358 243 q 257 301 294 280 "},"d":{"ha":1156,"x_min":136,"x_max":1043,"o":"m 138 246 q 167 210 144 222 l 558 -18 q 586 -27 570 -26 q 614 -21 603 -28 l 1011 210 l 1010 208 q 1034 231 1025 215 q 1043 264 1043 247 l 1043 715 q 1010 770 1043 754 l 1011 768 l 615 997 q 588 1002 601 1002 q 562 997 574 1002 l 167 768 q 138 731 144 755 q 136 715 136 723 q 144 684 136 699 q 181 657 155 663 q 199 655 191 655 q 229 661 215 655 l 526 832 l 526 146 q 449 190 485 170 q 377 231 412 211 q 306 272 342 252 q 229 317 269 293 q 199 323 215 323 q 181 321 191 323 q 144 294 155 315 q 136 262 136 279 q 138 246 136 254 m 652 144 l 652 833 q 722 792 690 811 q 785 755 754 774 q 849 717 817 736 q 918 677 881 699 l 918 300 q 784 222 847 260 q 652 144 721 184 "},"e":{"ha":1156,"x_min":126,"x_max":1034,"o":"m 126 265 q 157 211 126 231 l 549 -16 l 559 -20 q 581 -24 568 -24 q 593 -22 587 -24 q 606 -18 599 -21 q 614 -13 611 -16 q 619 -8 616 -11 l 1003 211 q 1031 250 1023 225 q 1034 266 1034 258 q 1025 296 1034 281 q 988 324 1013 318 q 972 326 980 326 q 940 318 956 326 q 760 215 850 267 q 581 110 671 163 l 313 265 l 611 437 l 610 436 q 643 490 643 452 q 611 545 643 524 l 313 715 l 581 869 l 940 663 q 970 656 954 656 q 988 659 979 656 q 1025 685 1014 664 q 1034 715 1034 699 q 1031 731 1034 722 q 1003 770 1024 755 l 610 996 q 579 1004 594 1004 q 549 996 564 1004 l 158 770 l 160 771 q 126 717 126 755 q 157 663 126 682 l 458 490 l 158 318 l 160 319 q 126 265 126 304 "},"f":{"ha":1156,"x_min":127,"x_max":1035,"o":"m 127 262 q 140 228 127 243 q 163 208 152 214 l 550 -18 q 582 -25 566 -25 q 613 -17 597 -25 q 636 7 628 -9 l 635 5 q 643 37 643 21 q 641 54 643 45 q 612 90 635 78 l 313 262 l 612 435 q 641 471 635 447 q 643 488 643 479 q 635 519 643 504 q 598 546 624 541 q 580 548 589 548 q 550 542 564 548 l 253 371 l 253 679 l 582 868 l 942 659 q 971 651 956 651 q 988 654 979 651 q 1026 684 1013 660 q 1035 715 1035 699 q 1033 731 1035 724 q 1004 768 1027 756 l 612 993 l 614 993 q 582 1003 599 1003 q 549 993 564 1004 l 550 993 l 158 768 q 127 714 127 749 l 127 262 "},"g":{"ha":1156,"x_min":119,"x_max":1027,"o":"m 119 262 q 150 208 119 228 l 542 -18 q 574 -25 558 -25 q 603 -18 586 -25 l 1000 211 q 1019 233 1011 220 q 1026 262 1026 245 q 1018 294 1026 281 q 999 315 1010 307 l 996 317 l 604 542 q 574 548 590 548 q 556 546 566 548 q 519 519 530 541 q 511 488 511 504 q 513 471 511 479 q 542 435 519 447 l 840 262 q 769 221 802 240 q 706 184 737 203 q 643 147 675 165 q 574 107 611 128 l 244 300 l 244 679 l 574 868 l 933 659 q 963 651 947 651 q 980 654 971 651 q 1018 684 1004 660 q 1027 715 1027 699 q 1024 731 1027 723 q 996 768 1018 756 l 604 993 l 606 993 q 573 1003 590 1003 q 541 993 556 1004 l 542 993 l 150 768 q 119 714 119 749 l 119 262 "},"h":{"ha":1156,"x_min":123,"x_max":1031,"o":"m 123 265 q 141 221 123 239 q 186 203 159 203 q 231 221 212 203 q 249 265 249 239 l 249 608 q 402 520 328 562 q 548 436 476 478 q 693 353 621 395 q 844 265 766 311 l 546 93 q 517 56 524 81 q 515 40 515 48 q 524 8 515 24 l 522 9 q 545 -15 529 -5 q 576 -24 561 -24 q 611 -12 594 -23 l 608 -14 l 999 211 q 1007 217 1006 215 q 1011 221 1008 218 l 1021 232 l 1029 249 q 1028 252 1029 254 l 1031 264 l 1031 265 l 1031 717 q 1011 761 1031 743 q 968 779 991 779 q 924 761 942 779 q 905 717 905 743 l 905 372 l 310 717 l 608 889 q 637 926 631 901 q 639 942 639 934 q 631 974 639 958 q 594 1000 620 994 q 576 1002 585 1002 q 546 996 560 1002 l 151 770 l 147 765 q 131 747 136 757 q 125 726 125 736 l 123 718 l 123 265 "},"i":{"ha":1156,"x_min":504,"x_max":646,"o":"m 504 932 q 525 882 504 903 q 575 861 546 861 q 625 882 604 861 q 646 932 646 903 q 625 982 646 961 q 575 1003 604 1003 q 525 982 546 1003 q 504 932 504 961 m 513 37 q 531 -7 513 11 q 575 -25 549 -25 q 618 -7 599 -25 q 637 37 637 11 l 637 708 q 618 751 637 732 q 575 771 599 771 q 531 751 549 771 q 513 708 513 732 l 513 37 "},"j":{"ha":1156,"x_min":125,"x_max":1033,"o":"m 127 250 q 157 211 134 224 l 547 -14 q 579 -21 562 -22 q 610 -11 596 -20 q 633 10 624 -3 q 642 40 642 23 l 642 833 l 939 661 q 970 654 956 654 q 1023 685 1004 654 q 1033 717 1033 701 q 1031 732 1033 725 q 1002 771 1024 758 l 612 994 q 576 1008 591 1008 q 571 1007 574 1008 q 555 1002 562 1006 l 157 771 q 129 734 135 758 q 127 718 127 726 q 135 686 127 702 l 134 688 q 156 663 140 672 q 189 654 172 654 q 218 661 201 654 l 517 833 l 517 149 q 439 193 475 172 q 367 234 403 214 q 296 275 332 254 q 220 319 260 296 q 190 326 205 326 q 172 323 181 326 q 135 297 146 318 q 125 266 125 282 q 127 250 125 258 "},"k":{"ha":1156,"x_min":126,"x_max":1034,"o":"m 126 267 q 135 232 126 244 q 163 210 144 220 l 546 -12 q 578 -22 561 -21 q 609 -15 595 -22 q 633 5 624 -8 q 642 39 642 19 q 642 211 642 131 q 643 383 643 292 l 940 212 l 939 212 q 971 204 951 204 q 1025 233 1005 204 q 1034 266 1034 250 q 1032 281 1034 273 q 1003 319 1025 306 l 703 492 l 1003 664 q 1031 701 1025 676 q 1033 717 1033 709 q 1025 749 1033 733 q 988 775 1014 770 q 970 777 979 777 q 940 771 954 777 l 643 600 l 643 943 q 631 986 643 972 q 604 1004 619 1000 q 573 1005 589 1008 q 550 997 558 1001 l 163 774 q 135 742 143 761 q 126 711 126 724 l 126 267 m 252 302 l 252 681 q 386 759 322 721 q 518 836 449 796 l 518 147 q 447 188 479 170 q 384 225 415 207 q 321 263 353 244 q 252 302 289 281 "},"l":{"ha":1156,"x_min":514,"x_max":1030,"o":"m 514 40 q 525 2 514 16 q 552 -16 536 -11 q 586 -18 568 -21 q 615 -8 603 -15 l 999 212 q 1027 250 1021 227 q 1030 268 1030 259 q 1023 296 1030 282 l 1022 297 q 983 326 1008 319 q 967 328 975 328 q 936 319 951 328 q 787 235 864 279 q 639 149 711 190 l 639 943 q 621 988 639 970 q 576 1006 603 1006 q 533 988 553 1006 q 514 943 514 970 l 514 40 "},"m":{"ha":1156,"x_min":134,"x_max":1025,"o":"m 134 268 q 152 223 134 241 q 196 205 170 205 q 239 223 221 205 q 257 268 257 241 l 257 604 l 553 433 q 558 431 555 432 q 564 429 561 429 q 573 427 570 427 q 579 428 576 428 q 588 428 585 428 q 599 431 592 428 q 608 434 606 433 q 612 437 610 435 q 757 521 684 478 q 901 604 831 564 l 901 268 q 919 223 901 241 q 964 205 937 205 q 1007 223 989 205 q 1025 268 1025 241 l 1025 721 q 1015 754 1025 742 q 990 771 1004 766 q 959 772 975 775 q 930 762 943 769 l 579 561 l 564 570 q 523 592 549 578 q 465 626 497 607 q 400 665 433 646 q 222 770 322 711 q 184 777 200 779 q 157 767 168 775 q 140 746 146 758 q 135 724 135 733 l 135 667 q 135 612 135 646 q 134 531 135 579 q 134 418 134 484 q 134 268 134 353 m 509 932 q 529 883 509 903 q 579 863 550 863 q 629 883 608 863 q 650 932 650 903 q 629 983 650 964 q 579 1003 608 1003 q 529 983 550 1003 q 509 932 509 964 "},"n":{"ha":1156,"x_min":136,"x_max":1028,"o":"m 136 262 q 154 219 136 237 q 199 201 172 201 q 242 219 224 201 q 260 262 260 237 l 260 600 l 935 208 q 966 200 951 201 q 997 208 982 200 q 1020 233 1011 218 q 1028 262 1028 247 l 1028 707 q 1010 750 1028 732 q 966 768 991 768 q 922 750 940 768 q 904 707 904 732 l 904 370 l 229 760 q 198 768 215 768 q 167 760 180 768 q 136 707 136 740 l 136 262 m 511 41 q 532 -8 511 12 q 582 -29 553 -29 q 632 -8 611 -29 q 653 41 653 12 q 632 92 653 71 q 582 113 611 113 q 532 92 553 113 q 511 41 511 71 "},"o":{"ha":1156,"x_min":131,"x_max":1038,"o":"m 131 262 q 140 230 131 245 q 164 207 149 214 l 163 208 l 553 -20 q 585 -26 569 -26 q 614 -20 597 -26 l 1007 208 q 1028 232 1019 216 q 1038 262 1038 247 l 1038 714 q 1029 744 1038 729 q 1007 766 1021 758 l 614 993 q 583 1001 598 1001 q 553 993 568 1001 l 163 766 l 164 768 q 140 745 149 761 q 131 714 131 730 l 131 262 m 256 297 l 256 677 q 421 772 342 726 q 586 867 501 818 q 750 771 671 818 q 913 676 829 725 l 913 298 l 586 109 l 256 297 m 513 488 q 533 437 513 458 q 585 416 554 416 q 635 437 614 416 q 656 488 656 458 q 635 537 656 517 q 585 558 614 558 q 533 537 554 558 q 513 488 513 517 "},"p":{"ha":1156,"x_min":126,"x_max":1039,"o":"m 126 262 q 130 235 126 248 q 153 211 134 222 l 546 -16 q 580 -26 563 -26 q 614 -16 597 -26 q 642 36 642 3 l 642 453 l 1015 668 q 1031 686 1025 673 q 1038 712 1038 699 q 1033 740 1039 726 q 1015 760 1027 753 l 610 993 q 577 1002 591 1004 q 549 993 562 1000 l 154 766 q 135 751 143 760 q 126 718 126 742 l 126 262 m 252 298 l 252 677 l 517 832 l 517 144 q 446 185 478 167 q 383 222 414 204 q 321 259 353 240 q 252 298 289 277 m 642 596 l 642 832 q 746 771 701 798 q 844 714 790 745 q 789 682 814 697 q 740 653 764 667 q 692 625 717 639 q 642 596 668 612 "},"q":{"ha":1156,"x_min":127,"x_max":1035,"o":"m 127 265 q 158 211 127 231 l 550 -14 l 547 -12 q 582 -24 564 -24 q 615 -12 598 -23 l 612 -14 l 1002 210 q 1027 234 1019 222 q 1035 265 1035 245 l 1035 717 q 1027 747 1035 733 q 1008 768 1019 760 l 611 996 q 580 1004 595 1004 q 550 996 564 1004 l 158 771 q 127 717 127 751 l 127 265 m 253 300 l 253 679 l 582 872 q 746 775 667 823 q 909 679 825 728 l 909 374 q 832 418 868 397 q 761 459 796 439 q 689 500 725 479 q 612 545 652 521 q 583 551 598 551 q 564 549 574 551 q 528 522 538 543 q 519 490 519 507 q 522 474 519 482 q 550 437 528 450 l 848 265 l 583 111 l 253 300 "},"r":{"ha":1156,"x_min":129,"x_max":1036,"o":"m 129 261 q 142 223 131 237 q 164 204 153 210 l 551 -18 l 549 -17 q 582 -28 565 -28 q 616 -17 598 -28 q 644 35 644 1 l 644 378 l 942 205 q 974 199 958 199 q 1004 207 989 199 q 1028 231 1020 215 l 1026 229 q 1036 261 1036 245 q 1034 277 1036 269 q 1004 315 1027 302 q 855 400 928 358 q 705 486 782 441 l 1007 660 q 1029 684 1022 669 q 1036 713 1036 699 q 1029 742 1036 728 q 1010 762 1022 755 l 612 991 q 576 999 595 1003 q 551 991 557 996 l 157 765 q 137 745 144 754 q 129 714 129 736 l 129 261 m 254 297 l 254 675 q 388 753 325 715 q 519 831 450 791 l 519 143 q 449 184 481 165 q 386 221 416 203 q 323 257 355 239 q 254 297 292 276 m 644 595 l 644 831 q 750 770 705 796 q 848 713 794 743 q 743 651 787 677 q 644 595 699 625 "},"s":{"ha":1156,"x_min":125,"x_max":1033,"o":"m 131 687 q 153 663 137 672 l 847 262 q 777 221 808 240 q 713 185 745 203 q 650 148 682 167 q 581 109 618 130 l 218 317 q 189 323 204 323 q 172 321 180 323 q 135 293 147 315 q 126 260 126 277 q 128 245 126 253 q 157 208 134 220 l 546 -16 q 562 -24 555 -24 q 579 -26 568 -26 q 596 -24 588 -26 q 612 -17 604 -24 l 1000 207 q 1023 233 1017 216 q 1029 266 1029 249 q 1022 296 1029 282 q 1004 315 1015 310 l 313 714 q 383 755 351 736 q 446 792 415 774 q 508 828 476 810 q 578 868 541 847 l 939 659 q 971 652 956 652 q 1025 681 1005 652 q 1033 713 1033 696 q 1031 730 1033 722 q 1002 768 1025 755 l 604 997 q 587 1002 600 999 q 549 991 574 1005 l 154 766 q 135 745 142 758 q 126 716 127 732 q 128 694 125 701 q 131 687 131 687 "},"t":{"ha":1156,"x_min":125,"x_max":1031,"o":"m 127 730 q 125 713 125 722 q 134 681 125 696 q 187 652 151 652 q 216 659 199 652 l 515 831 l 515 36 q 533 -7 515 12 q 578 -26 551 -26 q 622 -7 604 -26 q 640 36 640 12 l 640 831 q 718 786 682 807 q 790 745 754 765 q 861 704 825 725 q 937 660 897 684 q 967 653 951 653 q 985 655 976 653 q 1022 682 1011 661 q 1031 713 1031 697 q 1029 730 1031 722 q 1000 768 1023 755 l 611 991 q 575 1001 595 1003 q 549 994 555 998 l 155 768 q 127 730 134 754 "},"u":{"ha":1156,"x_min":110,"x_max":1047,"o":"m 110 275 q 139 220 110 238 l 546 -14 l 543 -12 q 578 -24 559 -24 q 612 -12 595 -23 l 610 -14 l 1015 220 q 1047 275 1047 241 l 1047 743 q 1029 788 1047 770 q 983 807 1011 807 q 938 788 957 807 q 920 743 920 770 l 920 311 l 578 114 l 236 311 l 236 743 q 218 788 236 770 q 172 807 200 807 q 128 788 146 807 q 110 743 110 770 l 110 275 m 505 509 q 526 457 505 478 q 578 436 547 436 q 630 457 608 436 q 652 509 652 478 q 630 561 652 539 q 578 582 608 582 q 526 561 547 582 q 505 509 505 539 "},"v":{"ha":1156,"x_min":110,"x_max":1047,"o":"m 110 275 q 139 220 110 238 l 546 -14 l 543 -12 q 578 -24 559 -24 q 612 -12 595 -23 l 610 -14 l 1015 220 q 1047 275 1047 241 l 1047 743 q 1029 788 1047 770 q 983 807 1011 807 q 938 788 957 807 q 920 743 920 770 l 920 311 l 578 114 l 236 311 l 236 743 q 218 788 236 770 q 172 807 200 807 q 128 788 146 807 q 110 743 110 770 l 110 275 "},"w":{"ha":1156,"x_min":117,"x_max":1023,"o":"m 117 264 q 125 225 117 240 q 147 202 134 210 q 175 195 160 195 q 204 205 191 196 q 356 293 278 249 q 509 380 433 338 l 509 37 q 521 1 509 14 q 548 -17 533 -12 q 578 -22 564 -22 q 597 -20 593 -22 l 993 210 q 1021 247 1015 222 q 1023 262 1023 255 q 1015 294 1023 279 q 979 323 1003 317 q 962 325 970 325 q 930 317 946 325 l 633 146 l 633 454 l 993 661 q 1021 698 1015 673 q 1023 714 1023 706 q 1015 746 1023 730 q 979 772 1004 766 q 960 774 969 774 q 930 768 945 774 l 633 597 l 633 940 q 615 985 633 966 q 571 1003 597 1003 q 527 985 545 1003 q 509 940 509 966 l 509 525 l 241 371 l 241 715 q 223 759 241 739 q 179 778 205 778 q 136 759 155 778 q 117 715 117 739 l 117 264 "},"x":{"ha":1156,"x_min":123,"x_max":1029,"o":"m 123 260 q 133 223 123 237 q 158 203 143 210 q 189 199 172 197 q 218 207 206 200 q 397 310 307 257 q 576 412 488 362 q 755 310 665 362 q 935 207 846 257 q 964 199 947 200 q 995 203 981 197 q 1020 223 1010 210 q 1029 260 1029 237 l 1029 711 q 1022 743 1029 729 q 1001 765 1014 757 q 972 773 989 774 q 937 764 956 773 l 576 557 l 215 764 q 181 774 197 774 q 152 765 164 774 q 131 743 139 757 q 123 711 123 730 l 123 260 m 249 367 l 249 603 q 353 542 309 568 q 452 485 397 515 l 249 367 m 505 46 q 526 -4 505 17 q 576 -25 547 -25 q 626 -4 606 -25 q 647 46 647 17 q 626 96 647 75 q 576 117 606 117 q 526 96 547 117 q 505 46 505 75 m 505 932 q 526 882 505 903 q 576 861 547 861 q 626 882 606 861 q 647 932 647 903 q 626 982 647 961 q 576 1003 606 1003 q 526 982 547 1003 q 505 932 505 961 m 701 485 q 752 514 728 500 q 800 542 777 528 q 848 571 823 555 q 904 603 873 586 l 904 367 l 701 485 "},"y":{"ha":1156,"x_min":142,"x_max":1039,"o":"m 144 692 q 172 656 150 668 l 528 452 l 528 39 q 546 -6 528 12 q 590 -24 564 -24 q 635 -6 616 -24 q 653 39 653 12 l 653 452 l 1008 656 q 1037 692 1031 668 q 1039 709 1039 701 q 1031 741 1039 725 q 994 766 1020 762 q 977 768 985 768 q 946 762 960 768 l 590 558 l 233 762 l 235 762 q 203 772 220 772 q 186 770 195 772 q 149 739 159 763 l 150 741 q 142 709 142 725 q 144 692 142 701 m 519 933 q 540 883 519 904 q 590 863 561 863 q 640 883 619 863 q 661 933 661 904 q 640 983 661 962 q 590 1004 619 1004 q 540 983 561 1004 q 519 933 519 962 "},"z":{"ha":1156,"x_min":110,"x_max":1028,"o":"m 116 691 q 142 664 122 676 q 293 578 216 621 q 444 490 369 535 l 144 318 q 116 281 122 306 q 114 265 114 273 q 122 233 114 249 l 121 235 q 143 211 127 220 q 175 201 159 201 q 210 212 193 201 l 207 211 q 387 314 297 262 q 567 419 477 366 l 833 264 l 534 92 q 506 54 513 78 q 504 37 504 45 q 513 5 504 21 q 567 -24 531 -24 q 596 -17 579 -24 l 997 216 q 1022 242 1015 228 q 1026 270 1028 256 q 1018 295 1025 283 q 1003 310 1011 306 q 884 378 941 345 q 781 437 835 406 q 689 490 726 468 l 989 663 l 987 661 q 1018 698 1011 672 q 1020 715 1020 707 q 1011 747 1020 732 q 975 774 1000 768 q 956 776 965 776 q 926 770 941 776 q 747 666 836 718 q 567 561 657 614 l 298 715 l 597 888 q 625 924 619 900 q 627 941 627 932 q 619 972 627 957 q 583 998 608 993 q 564 1000 573 1000 q 534 994 549 1000 l 146 771 q 124 749 134 762 q 112 721 114 736 q 113 699 110 707 q 116 691 116 691 "},"{":{"ha":1156,"x_min":-8,"x_max":646,"o":"m 11 440 q 68 392 39 416 q 125 345 97 368 l 125 260 q 135 228 125 244 q 161 204 144 212 l 547 -21 q 578 -28 564 -28 q 632 1 612 -28 q 639 50 646 25 q 610 89 632 75 l 250 296 l 250 375 q 250 392 250 386 q 248 401 250 397 q 241 408 245 404 q 231 418 237 411 l 151 486 l 228 551 l 233 557 q 250 583 250 574 l 250 676 l 610 884 q 638 920 632 896 q 632 968 644 944 q 595 996 619 990 q 547 991 571 1002 l 153 764 q 131 740 136 753 q 125 717 125 728 l 125 711 l 125 629 l 14 533 q -7 487 -8 517 q 11 440 -6 457 "},"|":{"ha":1156,"x_min":515,"x_max":640,"o":"m 515 35 q 533 -10 515 8 q 578 -28 551 -28 q 622 -10 604 -28 q 640 35 640 8 l 640 937 q 622 981 640 961 q 578 1000 604 1000 q 533 981 551 1000 q 515 937 515 961 l 515 35 "},"}":{"ha":1156,"x_min":509,"x_max":1162,"o":"m 545 889 l 904 682 l 904 603 q 904 586 904 591 q 906 577 904 581 q 912 570 908 574 q 924 559 917 566 l 1003 492 l 926 427 l 921 421 q 904 395 904 404 l 904 301 l 545 94 q 516 58 522 82 q 522 9 510 33 q 559 -18 534 -12 q 607 -14 583 -24 l 1002 214 q 1024 238 1018 225 q 1029 261 1029 250 l 1029 267 l 1029 349 l 1140 444 q 1161 491 1162 461 q 1143 538 1160 521 q 1086 585 1116 561 q 1029 633 1057 610 l 1029 718 q 1020 749 1029 733 q 993 774 1010 766 l 607 999 q 576 1006 590 1006 q 522 977 541 1006 q 515 928 509 953 q 545 889 522 903 "},"~":{"ha":1156,"x_min":123,"x_max":1029,"o":"m 123 374 q 141 329 123 347 q 186 311 159 311 q 229 329 210 311 q 249 374 249 347 l 249 518 l 953 313 q 1006 321 983 302 q 1029 374 1029 340 l 1029 600 q 1011 645 1029 627 q 966 663 993 663 q 924 645 943 663 q 904 600 904 627 l 904 456 l 200 661 q 160 656 178 664 q 132 633 142 649 q 123 606 123 618 l 123 600 l 123 374 "},"":{"ha":694,"x_min":0,"x_max":0,"o":""},"":{"ha":1156,"x_min":504,"x_max":646,"o":"m 504 932 q 525 882 504 903 q 575 861 546 861 q 625 882 604 861 q 646 932 646 903 q 625 982 646 961 q 575 1003 604 1003 q 525 982 546 1003 q 504 932 504 961 m 513 37 q 531 -7 513 11 q 575 -25 549 -25 q 618 -7 599 -25 q 637 37 637 11 l 637 708 q 618 751 637 732 q 575 771 599 771 q 531 751 549 771 q 513 708 513 732 l 513 37 "},"":{"ha":1156,"x_min":125,"x_max":1038,"o":"m 125 261 q 134 231 125 245 q 155 208 143 216 l 515 0 l 515 -49 q 535 -93 515 -75 q 578 -111 554 -111 q 622 -93 604 -111 q 640 -49 640 -75 l 640 0 q 821 104 732 53 q 1000 208 910 155 q 1029 244 1021 222 q 1028 286 1038 267 q 986 320 1013 311 q 937 315 960 329 l 640 144 l 640 831 l 937 660 q 985 653 960 646 q 1023 682 1010 660 q 1029 730 1035 705 q 1000 766 1023 754 l 640 974 l 640 1022 q 622 1066 640 1048 q 578 1084 604 1084 q 535 1066 554 1084 q 515 1022 515 1048 l 515 972 l 151 764 q 133 743 140 755 q 125 713 125 730 l 125 261 m 250 298 l 250 676 l 515 831 l 515 143 q 444 184 476 165 q 382 221 412 203 q 319 259 351 240 q 250 298 288 277 "},"":{"ha":1156,"x_min":98,"x_max":1044,"o":"m 102 471 q 120 426 102 444 q 164 407 138 407 l 334 407 l 134 292 l 134 293 q 106 262 114 282 q 103 221 98 242 q 126 187 109 200 q 164 174 144 174 l 975 174 q 1021 192 1003 174 q 1039 237 1039 210 q 1021 282 1039 264 q 975 301 1003 301 l 403 301 q 457 333 436 321 q 496 356 478 346 q 533 378 514 367 q 585 407 553 389 l 975 407 q 1021 426 1003 407 q 1039 471 1039 444 q 1021 516 1039 498 q 975 534 1003 534 l 586 534 l 292 705 l 570 865 l 943 648 q 992 644 966 636 q 1032 675 1019 651 l 1031 673 q 1038 722 1044 697 q 1006 761 1031 747 l 1007 760 l 600 994 q 538 994 568 1010 l 134 760 q 110 736 118 751 q 102 705 102 721 q 110 675 102 690 q 134 650 118 659 l 334 534 l 164 534 q 120 516 138 534 q 102 471 102 498 "},"":{"ha":1156,"x_min":0,"x_max":0,"o":""},"":{"ha":1156,"x_min":123,"x_max":1040,"o":"m 127 486 q 147 443 127 463 q 191 424 167 424 l 519 424 l 519 323 l 192 323 q 147 306 165 323 q 129 261 129 288 q 147 217 129 235 q 192 199 165 199 l 519 199 l 519 35 q 537 -8 519 11 q 582 -28 555 -28 q 626 -8 608 -28 q 644 35 644 11 l 644 199 l 974 199 q 1018 217 1000 199 q 1036 261 1036 235 q 1018 306 1036 288 q 974 323 1000 323 l 644 323 l 644 424 l 974 424 q 1018 443 1000 424 q 1036 486 1036 463 q 1018 531 1036 513 q 974 549 1000 549 l 814 549 l 1004 659 q 1034 698 1028 672 q 1026 745 1040 724 l 1026 743 q 989 770 1014 764 q 942 766 964 777 l 581 558 l 222 766 q 175 773 199 781 q 138 743 151 766 l 138 745 q 130 698 123 724 q 160 659 136 672 q 254 604 207 632 q 349 549 301 576 l 191 549 q 147 531 167 549 q 127 486 127 513 "},"":{"ha":1156,"x_min":123,"x_max":1038,"o":"m 127 478 q 175 428 127 441 l 814 243 q 750 207 778 222 q 696 175 722 191 q 642 145 669 160 q 581 109 615 130 l 221 315 q 173 319 199 325 q 136 293 147 314 q 130 245 123 269 q 158 208 136 220 l 557 -22 q 581 -29 567 -29 q 606 -22 595 -29 l 1003 208 q 1028 228 1022 220 q 1035 257 1035 236 l 1035 490 q 1026 528 1035 518 q 999 545 1017 538 l 347 732 q 411 769 383 753 q 465 800 439 785 q 519 830 492 815 q 581 867 546 846 l 940 659 q 972 652 957 652 q 1026 681 1006 652 q 1031 728 1038 704 q 1003 766 1025 753 l 621 987 q 580 999 602 999 q 542 987 559 998 l 157 766 q 133 745 138 755 q 127 718 127 734 l 127 478 m 253 534 l 253 631 q 420 582 339 606 q 582 535 501 558 q 744 489 663 513 q 909 440 825 465 l 909 345 q 742 393 823 370 q 581 439 661 416 q 419 486 500 463 q 253 534 338 509 "},"":{"ha":1156,"x_min":355,"x_max":818,"o":"m 355 933 q 376 883 355 904 q 427 863 397 863 q 476 883 456 863 q 497 933 497 904 q 476 983 497 962 q 427 1004 456 1004 q 376 983 397 1004 q 355 933 355 962 m 676 933 q 697 883 676 904 q 747 863 718 863 q 797 883 777 863 q 818 933 818 904 q 797 983 818 962 q 747 1004 777 1004 q 697 983 718 1004 q 676 933 676 962 "},"":{"ha":1156,"x_min":0,"x_max":0,"o":""},"":{"ha":1156,"x_min":126,"x_max":796,"o":"m 126 261 q 134 228 126 244 q 158 205 142 212 l 157 207 l 549 -20 l 547 -20 q 579 -28 559 -28 q 633 3 614 -28 q 640 51 647 26 q 611 89 632 75 l 252 296 l 252 713 q 232 755 252 736 q 189 775 213 775 q 144 756 163 775 q 126 713 126 736 l 126 261 m 277 350 q 286 318 277 334 q 310 296 294 302 l 309 297 l 699 69 q 730 62 715 62 q 761 71 746 62 q 785 94 777 79 l 783 93 q 789 140 796 115 q 761 178 782 164 l 401 386 l 401 802 q 384 846 401 828 q 339 864 366 864 q 296 846 315 864 q 277 802 277 828 l 277 350 "},"":{"ha":1156,"x_min":118,"x_max":1025,"o":"m 118 711 q 137 668 118 688 q 180 648 157 648 l 900 648 l 900 260 q 919 217 900 236 q 962 197 939 197 q 1007 217 989 197 q 1025 260 1025 236 l 1025 711 q 1007 755 1025 737 q 962 774 989 774 l 180 774 q 137 756 157 774 q 118 711 118 738 "},"":{"ha":1156,"x_min":121,"x_max":1028,"o":"m 121 484 q 140 439 121 457 q 183 421 159 421 l 965 421 q 1010 439 991 421 q 1028 484 1028 457 q 1010 528 1028 510 q 965 546 991 546 l 183 546 q 140 528 160 546 q 121 484 121 510 "},"":{"ha":1156,"x_min":126,"x_max":1034,"o":"m 126 260 q 146 217 126 236 q 189 197 165 197 l 971 197 q 1015 217 997 197 q 1034 260 1034 236 q 1016 304 1034 286 q 971 322 998 322 l 189 322 q 146 304 165 322 q 126 260 126 286 m 126 711 q 146 668 126 688 q 189 648 165 648 l 518 648 l 518 486 q 536 442 518 460 q 581 424 554 424 q 625 442 607 424 q 643 486 643 460 l 643 648 l 971 648 q 1015 668 997 648 q 1034 711 1034 688 q 1016 755 1034 737 q 971 774 998 774 l 643 774 l 643 937 q 625 982 643 964 q 581 1000 607 1000 q 536 982 554 1000 q 518 937 518 964 l 518 774 l 189 774 q 146 756 165 774 q 126 711 126 738 "},"":{"ha":1156,"x_min":678,"x_max":989,"o":"m 692 977 l 690 978 q 714 954 699 962 q 745 946 729 946 q 775 953 758 946 q 864 1005 819 978 q 953 1057 908 1032 l 951 1055 q 982 1092 975 1067 q 975 1141 989 1118 q 938 1168 964 1162 q 890 1164 913 1173 l 714 1063 q 685 1024 692 1048 q 692 977 678 999 "},"":{"ha":1156,"x_min":132,"x_max":842,"o":"m 132 35 q 150 -8 132 11 q 195 -28 168 -28 q 238 -8 218 -28 q 257 35 257 11 l 257 153 l 561 -22 q 590 -27 575 -29 q 618 -17 606 -25 q 639 3 631 -9 q 647 35 647 16 l 647 189 l 736 104 q 758 90 746 94 q 781 86 770 86 q 804 91 791 86 q 825 104 816 95 q 842 149 842 123 q 823 193 842 175 l 647 364 l 647 713 q 629 757 647 739 q 585 775 611 775 q 540 757 558 775 q 522 713 522 739 l 522 143 q 451 184 484 165 q 389 221 419 203 q 326 257 358 239 q 257 297 294 276 l 257 713 q 238 757 257 739 q 195 775 218 775 q 150 757 168 775 q 132 713 132 739 l 132 35 "},"":{"ha":1156,"x_min":0,"x_max":0,"o":""},"":{"ha":1156,"x_min":454,"x_max":696,"o":"m 454 486 q 490 401 454 436 q 575 366 525 366 q 661 401 625 366 q 696 486 696 436 q 661 572 696 536 q 575 607 625 607 q 490 572 525 607 q 454 486 454 536 "},"":{"ha":1156,"x_min":-65,"x_max":248,"o":"m -29 -93 q 10 -116 -9 -104 q 50 -139 29 -128 q 26 -153 35 -147 q 11 -162 18 -158 q -6 -172 3 -167 q -29 -184 -16 -176 q -58 -223 -52 -199 q -52 -271 -65 -247 q 3 -301 -32 -301 q 19 -298 12 -301 q 32 -293 25 -296 l 210 -191 q 247 -138 248 -168 q 214 -87 245 -107 l 33 17 q -14 23 11 31 q -52 -5 -38 16 q -58 -54 -65 -29 q -29 -93 -52 -79 "},"":{"ha":1156,"x_min":363,"x_max":1032,"o":"m 375 93 l 374 94 q 397 71 382 79 q 428 62 412 62 q 445 64 437 62 q 458 69 452 66 l 850 297 l 848 296 q 882 350 882 311 l 882 802 q 864 846 882 828 q 819 864 846 864 q 775 846 793 864 q 757 802 757 828 l 757 386 q 576 282 665 334 q 397 178 488 231 q 370 140 376 164 q 375 93 363 115 m 525 3 q 579 -28 545 -28 q 610 -21 593 -28 l 1002 207 l 1000 205 q 1024 228 1015 212 q 1032 261 1032 244 l 1032 713 q 1014 755 1032 736 q 970 775 996 775 q 926 756 946 775 q 907 713 907 736 l 907 296 l 549 89 q 518 51 525 75 q 525 3 511 26 "},"":{"ha":1156,"x_min":114,"x_max":1023,"o":"m 149 207 l 539 -21 q 566 -30 550 -28 q 603 -18 582 -32 l 989 204 q 1017 241 1011 216 q 1011 289 1023 265 q 957 319 990 319 q 926 311 943 319 l 570 104 l 306 258 l 606 431 q 624 452 616 439 q 632 482 632 465 l 632 705 q 614 749 632 729 q 570 768 596 768 q 527 749 545 768 q 509 705 509 729 l 509 517 l 149 310 q 115 258 114 289 q 149 207 117 227 m 498 929 q 519 879 498 900 q 570 859 541 859 q 621 879 600 859 q 642 929 642 900 q 621 979 642 958 q 570 1000 600 1000 q 519 979 541 1000 q 498 929 498 958 "},"":{"ha":1156,"x_min":140,"x_max":1040,"o":"m 140 268 q 158 223 140 241 q 203 205 176 205 q 247 223 229 205 q 265 268 265 241 l 265 607 q 342 563 307 583 q 412 524 378 543 q 480 484 446 504 q 557 440 515 464 q 589 431 572 432 q 623 440 606 429 q 769 524 694 482 q 916 607 844 566 l 916 268 q 933 223 916 241 q 978 205 951 205 q 1022 223 1004 205 q 1040 268 1040 241 l 1040 718 q 1033 749 1040 737 q 1011 768 1025 760 l 621 993 q 589 1001 606 1002 q 561 993 572 1000 l 171 770 q 140 729 140 751 l 140 268 m 325 715 l 590 867 q 725 791 661 827 q 856 715 788 755 l 590 564 q 456 640 519 604 q 325 715 393 675 m 460 1333 l 458 1335 l 635 1231 q 667 1223 651 1223 q 721 1253 701 1223 q 727 1302 734 1276 q 697 1340 720 1328 l 521 1442 q 473 1446 498 1451 q 436 1419 447 1440 q 429 1370 422 1396 q 460 1333 436 1344 m 519 45 q 540 -5 519 16 q 590 -26 561 -26 q 640 -5 619 -26 q 661 45 661 16 q 640 95 661 74 q 590 115 619 115 q 540 95 561 115 q 519 45 519 74 "},"":{"ha":1156,"x_min":140,"x_max":1040,"o":"m 140 268 q 158 223 140 241 q 203 205 176 205 q 247 223 229 205 q 265 268 265 241 l 265 607 q 342 563 307 583 q 412 524 378 543 q 480 484 446 504 q 557 440 515 464 q 589 431 572 432 q 623 440 606 429 q 769 524 694 482 q 916 607 844 566 l 916 268 q 933 223 916 241 q 978 205 951 205 q 1022 223 1004 205 q 1040 268 1040 241 l 1040 718 q 1033 749 1040 737 q 1011 768 1025 760 l 621 993 q 589 1001 606 1002 q 561 993 572 1000 l 171 770 q 140 729 140 751 l 140 268 m 325 715 l 590 867 q 725 791 661 827 q 856 715 788 755 l 590 564 q 456 640 519 604 q 325 715 393 675 m 437 1254 l 436 1255 q 459 1232 444 1240 q 490 1223 475 1223 q 521 1231 504 1223 q 610 1282 566 1255 q 699 1335 654 1310 l 697 1333 q 728 1370 721 1344 q 721 1419 734 1396 q 684 1446 710 1440 q 636 1442 659 1451 l 460 1340 q 431 1301 437 1326 q 437 1254 424 1276 m 519 45 q 540 -5 519 16 q 590 -26 561 -26 q 640 -5 619 -26 q 661 45 661 16 q 640 95 661 74 q 590 115 619 115 q 540 95 561 115 q 519 45 519 74 "},"":{"ha":1156,"x_min":120,"x_max":1040,"o":"m 134 960 l 132 961 q 155 938 140 946 q 186 929 170 929 q 203 931 196 929 q 216 936 210 933 q 397 1040 307 987 q 578 1145 488 1092 l 937 936 q 968 929 954 929 q 1022 958 1002 929 q 1029 1008 1036 982 q 999 1046 1023 1035 l 1000 1044 l 611 1270 q 573 1278 591 1280 q 545 1270 555 1276 l 155 1044 l 157 1046 q 127 1009 134 1035 q 134 960 120 983 m 140 268 q 158 223 140 241 q 203 205 176 205 q 247 223 229 205 q 265 268 265 241 l 265 607 q 342 563 307 583 q 412 524 378 543 q 480 484 446 504 q 557 440 515 464 q 589 431 572 432 q 623 440 606 429 q 769 524 694 482 q 916 607 844 566 l 916 268 q 933 223 916 241 q 978 205 951 205 q 1022 223 1004 205 q 1040 268 1040 241 l 1040 718 q 1033 749 1040 737 q 1011 768 1025 760 l 621 993 q 589 1001 606 1002 q 561 993 572 1000 l 171 770 q 140 729 140 751 l 140 268 m 325 715 l 590 867 q 725 791 661 827 q 856 715 788 755 l 590 564 q 456 640 519 604 q 325 715 393 675 m 519 45 q 540 -5 519 16 q 590 -26 561 -26 q 640 -5 619 -26 q 661 45 661 16 q 640 95 661 74 q 590 115 619 115 q 540 95 561 115 q 519 45 519 74 "},"":{"ha":1156,"x_min":140,"x_max":1040,"o":"m 140 268 q 158 223 140 241 q 203 205 176 205 q 247 223 229 205 q 265 268 265 241 l 265 607 q 342 563 307 583 q 412 524 378 543 q 480 484 446 504 q 557 440 515 464 q 589 431 572 432 q 623 440 606 429 q 769 524 694 482 q 916 607 844 566 l 916 268 q 933 223 916 241 q 978 205 951 205 q 1022 223 1004 205 q 1040 268 1040 241 l 1040 718 q 1033 749 1040 737 q 1011 768 1025 760 l 621 993 q 589 1001 606 1002 q 561 993 572 1000 l 171 770 q 140 729 140 751 l 140 268 m 232 1071 l 231 1072 q 253 1048 237 1057 q 285 1039 269 1039 q 319 1050 302 1039 l 317 1048 q 399 1097 357 1072 q 481 1145 441 1121 l 644 1047 q 679 1040 660 1040 q 710 1050 698 1040 l 903 1161 q 931 1198 925 1174 q 925 1246 937 1222 q 888 1272 914 1267 q 840 1268 863 1278 q 758 1220 800 1244 q 676 1173 716 1196 l 511 1268 q 478 1279 492 1279 q 457 1275 464 1279 q 431 1260 453 1274 q 370 1224 411 1249 q 254 1156 330 1200 q 226 1119 232 1143 q 232 1071 220 1095 m 325 715 l 590 867 q 725 791 661 827 q 856 715 788 755 l 590 564 q 456 640 519 604 q 325 715 393 675 m 519 45 q 540 -5 519 16 q 590 -26 561 -26 q 640 -5 619 -26 q 661 45 661 16 q 640 95 661 74 q 590 115 619 115 q 540 95 561 115 q 519 45 519 74 "},"":{"ha":1156,"x_min":140,"x_max":1040,"o":"m 140 268 q 158 223 140 241 q 203 205 176 205 q 247 223 229 205 q 265 268 265 241 l 265 607 q 342 563 307 583 q 412 524 378 543 q 480 484 446 504 q 557 440 515 464 q 589 431 572 432 q 623 440 606 429 q 769 524 694 482 q 916 607 844 566 l 916 268 q 933 223 916 241 q 978 205 951 205 q 1022 223 1004 205 q 1040 268 1040 241 l 1040 718 q 1033 749 1040 737 q 1011 768 1025 760 l 621 993 q 589 1001 606 1002 q 561 993 572 1000 l 171 770 q 140 729 140 751 l 140 268 m 325 715 l 590 867 q 725 791 661 827 q 856 715 788 755 l 590 564 q 456 640 519 604 q 325 715 393 675 m 347 1211 q 368 1161 347 1182 q 418 1140 389 1140 q 468 1161 447 1140 q 489 1211 489 1182 q 468 1261 489 1240 q 418 1282 447 1282 q 368 1261 389 1282 q 347 1211 347 1240 m 519 45 q 540 -5 519 16 q 590 -26 561 -26 q 640 -5 619 -26 q 661 45 661 16 q 640 95 661 74 q 590 115 619 115 q 540 95 561 115 q 519 45 519 74 m 668 1211 q 689 1161 668 1182 q 739 1140 710 1140 q 789 1161 768 1140 q 810 1211 810 1182 q 789 1261 810 1240 q 739 1282 768 1282 q 689 1261 710 1282 q 668 1211 668 1240 "},"":{"ha":1156,"x_min":140,"x_max":1040,"o":"m 140 268 q 158 223 140 241 q 203 205 176 205 q 247 223 229 205 q 265 268 265 241 l 265 607 q 342 563 307 583 q 412 524 378 543 q 480 484 446 504 q 557 440 515 464 q 589 431 572 432 q 623 440 606 429 q 769 524 694 482 q 916 607 844 566 l 916 268 q 933 223 916 241 q 978 205 951 205 q 1022 223 1004 205 q 1040 268 1040 241 l 1040 718 q 1033 749 1040 737 q 1011 768 1025 760 l 621 993 q 589 1001 606 1002 q 561 993 572 1000 l 171 770 q 140 729 140 751 l 140 268 m 325 715 l 590 867 q 725 791 661 827 q 856 715 788 755 l 590 564 q 456 640 519 604 q 325 715 393 675 m 519 45 q 540 -5 519 16 q 590 -26 561 -26 q 640 -5 619 -26 q 661 45 661 16 q 640 95 661 74 q 590 115 619 115 q 540 95 561 115 q 519 45 519 74 m 519 989 q 540 939 519 960 q 591 918 561 918 q 642 939 621 918 q 663 989 663 960 q 642 1040 663 1019 q 591 1061 621 1061 q 540 1040 561 1061 q 519 989 519 1019 "},"":{"ha":2313,"x_min":302,"x_max":1980,"o":"m 302 264 q 321 221 302 239 q 366 203 339 203 q 410 221 392 203 q 428 264 428 239 l 428 603 q 504 559 469 579 q 574 519 539 539 q 643 480 608 500 q 720 436 678 460 q 752 427 734 427 q 786 436 770 427 l 1078 604 l 1078 265 q 1086 233 1078 248 q 1107 211 1095 219 l 1496 -14 q 1528 -21 1512 -21 q 1557 -14 1540 -20 l 1946 211 q 1974 248 1968 224 q 1968 296 1980 272 q 1931 324 1956 318 q 1883 318 1907 330 l 1528 113 l 1263 264 l 1557 433 q 1580 456 1572 441 q 1589 488 1589 471 q 1558 542 1589 522 l 1263 711 l 1528 864 l 1883 659 q 1931 654 1906 648 q 1968 681 1957 660 q 1974 728 1980 704 q 1946 765 1968 753 l 1557 989 q 1496 989 1525 1004 l 1140 783 l 786 987 q 746 997 764 1002 q 726 991 728 991 l 334 765 q 312 744 319 757 q 304 720 304 730 l 304 719 q 304 707 304 718 q 304 671 304 696 q 304 595 304 646 q 303 464 304 545 q 302 264 302 383 m 489 711 q 558 752 526 733 q 621 789 590 771 q 684 826 652 807 q 753 865 715 844 l 1017 711 l 753 559 l 489 711 m 682 40 q 703 -10 682 11 q 753 -31 724 -31 q 803 -10 782 -31 q 823 40 823 11 q 803 92 823 71 q 753 113 782 113 q 703 92 724 113 q 682 40 682 71 m 1203 371 l 1203 604 l 1404 488 q 1349 456 1373 471 q 1300 428 1324 441 q 1253 400 1276 414 q 1203 371 1230 387 "},"":{"ha":1156,"x_min":132,"x_max":1042,"o":"m 132 265 q 141 235 132 250 q 163 211 151 219 l 640 -64 q 616 -78 625 -72 q 598 -88 607 -83 q 581 -98 590 -93 q 558 -111 572 -103 q 530 -149 536 -125 q 536 -197 523 -174 q 590 -228 555 -228 q 606 -225 600 -228 q 619 -220 612 -222 l 798 -117 q 826 -62 829 -96 q 791 -8 823 -28 l 708 40 l 1007 211 q 1036 248 1029 224 q 1031 294 1042 272 q 992 323 1018 317 q 945 318 966 329 l 647 147 l 647 833 q 725 789 689 810 q 797 748 761 768 q 868 707 832 728 q 945 663 905 686 q 992 658 965 652 q 1031 685 1019 664 q 1036 733 1042 708 q 1007 770 1029 758 l 615 996 q 554 996 583 1011 q 460 942 510 971 q 358 883 410 913 q 257 824 307 852 q 163 770 208 795 q 141 746 150 761 q 132 717 132 730 l 132 265 m 257 301 l 257 679 q 390 757 328 720 q 522 835 453 795 l 522 146 q 451 187 484 168 q 389 224 419 205 q 326 261 358 243 q 257 301 294 280 "},"":{"ha":1156,"x_min":126,"x_max":1039,"o":"m 126 265 q 157 211 126 231 l 536 -8 q 581 -21 559 -22 q 619 -8 602 -19 l 1003 211 q 1031 249 1023 225 q 1025 296 1038 273 q 988 324 1013 318 q 940 318 964 330 q 760 215 850 267 q 581 110 671 163 l 313 265 l 611 437 l 610 436 q 643 490 643 452 q 611 545 643 524 l 313 715 l 581 869 l 940 663 q 988 659 962 653 q 1025 685 1014 664 q 1031 731 1039 707 q 1003 770 1024 756 l 610 996 q 549 996 578 1011 l 158 770 l 160 771 q 126 717 126 755 q 157 663 126 682 l 458 490 l 158 318 l 160 319 q 126 265 126 304 m 460 1333 l 458 1335 l 635 1231 q 667 1223 651 1223 q 721 1253 701 1223 q 727 1302 734 1276 q 697 1340 720 1328 l 521 1442 q 473 1446 498 1451 q 436 1419 447 1440 q 429 1370 422 1396 q 460 1333 436 1344 "},"":{"ha":1156,"x_min":126,"x_max":1039,"o":"m 126 265 q 157 211 126 231 l 549 -16 l 559 -20 q 581 -24 568 -24 q 593 -22 587 -24 q 606 -18 599 -21 q 614 -13 611 -16 q 619 -8 616 -11 l 1003 211 q 1031 249 1023 225 q 1025 296 1038 273 q 988 324 1013 318 q 940 318 964 330 q 760 215 850 267 q 581 110 671 163 l 313 265 l 611 437 l 610 436 q 643 490 643 452 q 611 545 643 524 l 313 715 l 581 869 l 940 663 q 988 659 962 653 q 1025 685 1014 664 q 1031 731 1039 707 q 1003 770 1024 756 l 610 996 q 549 996 578 1011 l 158 770 l 160 771 q 126 717 126 755 q 157 663 126 682 l 458 490 l 158 318 l 160 319 q 126 265 126 304 m 437 1255 l 436 1256 q 459 1232 444 1240 q 490 1224 475 1224 q 521 1231 504 1224 q 609 1283 565 1256 q 699 1335 654 1310 l 697 1333 q 728 1370 721 1345 q 721 1419 734 1396 q 684 1446 709 1440 q 636 1442 659 1451 l 460 1341 q 431 1302 437 1326 q 437 1255 424 1277 "},"":{"ha":1156,"x_min":120,"x_max":1039,"o":"m 126 265 q 157 211 126 231 l 549 -16 l 559 -20 q 581 -24 568 -24 q 593 -22 587 -24 q 606 -18 599 -21 q 614 -13 611 -16 q 619 -8 616 -11 l 1003 211 q 1031 249 1023 225 q 1025 296 1038 273 q 988 324 1013 318 q 940 318 964 330 q 760 215 850 267 q 581 110 671 163 l 313 265 l 611 437 l 610 436 q 643 490 643 452 q 611 545 643 524 l 313 715 l 581 869 l 940 663 q 988 659 962 653 q 1025 685 1014 664 q 1031 731 1039 707 q 1003 770 1024 756 l 610 996 q 549 996 578 1011 l 158 770 l 160 771 q 126 717 126 755 q 157 663 126 682 l 458 490 l 158 318 l 160 319 q 126 265 126 304 m 132 962 q 155 938 140 946 q 186 930 170 930 q 203 932 196 930 q 216 937 210 934 q 397 1040 307 988 q 578 1145 488 1092 l 937 937 q 968 930 954 930 q 1022 959 1002 930 q 1029 1009 1036 982 q 999 1046 1023 1036 l 611 1270 q 577 1279 596 1281 q 545 1270 558 1278 l 157 1046 q 127 1009 134 1035 q 132 962 120 984 "},"":{"ha":1156,"x_min":126,"x_max":1039,"o":"m 126 265 q 157 211 126 231 l 549 -16 l 559 -20 q 581 -24 568 -24 q 593 -22 587 -24 q 606 -18 599 -21 q 614 -13 611 -16 q 619 -8 616 -11 l 1003 211 q 1031 249 1023 225 q 1025 296 1038 273 q 988 324 1013 318 q 940 318 964 330 q 760 215 850 267 q 581 110 671 163 l 313 265 l 611 437 l 610 436 q 643 490 643 452 q 611 545 643 524 l 313 715 l 581 869 l 940 663 q 988 659 962 653 q 1025 685 1014 664 q 1031 731 1039 707 q 1003 770 1024 756 l 610 996 q 549 996 578 1011 l 158 770 l 160 771 q 126 717 126 755 q 157 663 126 682 l 458 490 l 158 318 l 160 319 q 126 265 126 304 m 347 1211 q 368 1161 347 1182 q 418 1141 389 1141 q 468 1161 448 1141 q 489 1211 489 1182 q 468 1261 489 1240 q 418 1282 448 1282 q 368 1261 389 1282 q 347 1211 347 1240 m 668 1211 q 689 1161 668 1182 q 739 1141 710 1141 q 789 1161 768 1141 q 810 1211 810 1182 q 789 1261 810 1240 q 739 1282 768 1282 q 689 1261 710 1282 q 668 1211 668 1240 "},"":{"ha":1156,"x_min":422,"x_max":734,"o":"m 460 949 l 458 950 l 635 846 q 667 839 651 839 q 721 868 701 839 q 727 918 734 892 q 697 956 720 943 l 521 1057 q 473 1061 498 1067 q 436 1035 447 1056 q 429 985 422 1011 q 460 949 436 960 m 513 37 q 531 -7 513 11 q 575 -25 549 -25 q 618 -7 599 -25 q 637 37 637 11 l 637 708 q 618 751 637 732 q 575 771 599 771 q 531 751 549 771 q 513 708 513 732 l 513 37 "},"":{"ha":1156,"x_min":406,"x_max":718,"o":"m 419 868 q 473 839 437 839 q 504 846 487 839 q 593 898 549 871 q 682 950 637 925 l 681 949 q 711 985 704 960 q 704 1035 718 1011 q 667 1061 693 1055 q 619 1057 642 1067 l 443 956 q 413 918 421 943 q 419 868 406 892 m 503 37 q 522 -7 503 11 q 566 -25 542 -25 q 610 -7 591 -25 q 628 37 628 11 l 628 708 q 610 751 628 732 q 566 771 592 771 q 522 751 542 771 q 503 708 503 732 l 503 37 "},"":{"ha":1156,"x_min":120,"x_max":1036,"o":"m 134 682 l 132 684 q 155 660 140 668 q 186 652 170 652 q 203 654 196 652 q 216 659 210 656 q 397 762 307 710 q 578 867 488 814 l 937 659 q 968 652 954 652 q 1022 681 1002 652 q 1029 731 1036 704 q 999 768 1023 758 l 1000 766 l 611 991 q 577 1000 595 1002 q 545 991 560 998 l 155 766 l 157 768 q 127 731 134 757 q 134 682 120 706 m 513 37 q 531 -7 513 11 q 575 -25 549 -25 q 618 -7 599 -25 q 637 37 637 11 l 637 708 q 618 751 637 732 q 575 771 599 771 q 531 751 549 771 q 513 708 513 732 l 513 37 "},"":{"ha":1156,"x_min":347,"x_max":810,"o":"m 347 861 q 368 811 347 832 q 418 790 389 790 q 468 811 447 790 q 489 861 489 832 q 468 911 489 890 q 418 932 447 932 q 368 911 389 932 q 347 861 347 890 m 513 37 q 531 -7 513 11 q 575 -25 549 -25 q 618 -7 599 -25 q 637 37 637 11 l 637 708 q 618 751 637 732 q 575 771 599 771 q 531 751 549 771 q 513 708 513 732 l 513 37 m 668 861 q 689 811 668 832 q 739 790 710 790 q 789 811 768 790 q 810 861 810 832 q 789 911 810 890 q 739 932 768 932 q 689 911 710 932 q 668 861 668 890 "},"":{"ha":1156,"x_min":0,"x_max":0,"o":""},"":{"ha":1156,"x_min":136,"x_max":1028,"o":"m 136 262 q 154 219 136 237 q 199 201 172 201 q 242 219 224 201 q 260 262 260 237 l 260 600 l 935 208 q 997 208 966 193 q 1020 233 1011 218 q 1028 262 1028 247 l 1028 707 q 1010 750 1028 732 q 966 768 991 768 q 922 750 940 768 q 904 707 904 732 l 904 370 l 229 760 q 198 768 215 768 q 167 760 180 768 q 136 707 136 740 l 136 262 m 232 1071 l 230 1072 q 253 1048 237 1057 q 284 1039 269 1039 q 319 1050 302 1040 l 316 1049 q 398 1097 357 1072 q 480 1145 440 1121 l 644 1048 q 677 1039 658 1038 q 709 1050 696 1041 l 903 1162 q 930 1198 924 1174 q 924 1246 937 1222 q 888 1272 913 1267 q 840 1268 863 1278 q 758 1220 800 1244 q 676 1173 716 1196 l 511 1268 q 479 1280 491 1281 q 456 1274 467 1279 l 254 1156 q 226 1119 232 1143 q 232 1071 220 1095 m 511 41 q 532 -8 511 12 q 582 -29 553 -29 q 632 -8 611 -29 q 653 41 653 12 q 632 92 653 71 q 582 113 611 113 q 532 92 553 113 q 511 41 511 71 "},"":{"ha":1156,"x_min":131,"x_max":1038,"o":"m 131 262 q 140 230 131 245 q 164 207 149 214 l 163 208 l 553 -20 q 585 -26 569 -26 q 614 -20 597 -26 l 1007 208 q 1028 232 1019 216 q 1038 262 1038 247 l 1038 714 q 1029 744 1038 729 q 1007 766 1021 758 l 614 993 q 553 993 582 1008 l 163 766 l 164 768 q 140 745 149 761 q 131 714 131 730 l 131 262 m 256 297 l 256 677 q 421 772 342 726 q 586 867 501 818 q 750 771 671 818 q 913 676 829 725 l 913 298 l 586 109 l 256 297 m 460 1333 l 458 1335 l 635 1231 q 667 1224 651 1224 q 721 1253 701 1224 q 727 1303 735 1277 q 697 1341 720 1329 l 521 1442 q 473 1446 498 1452 q 436 1419 447 1440 q 429 1370 422 1396 q 460 1333 436 1344 m 513 488 q 533 437 513 458 q 585 416 554 416 q 635 437 614 416 q 656 488 656 458 q 635 537 656 517 q 585 558 614 558 q 533 537 554 558 q 513 488 513 517 "},"":{"ha":1156,"x_min":131,"x_max":1038,"o":"m 131 262 q 140 230 131 245 q 164 207 149 214 l 163 208 l 553 -20 q 585 -26 569 -26 q 614 -20 597 -26 l 1007 208 q 1028 232 1019 216 q 1038 262 1038 247 l 1038 714 q 1029 744 1038 729 q 1007 766 1021 758 l 614 993 q 553 993 582 1008 l 163 766 l 164 768 q 140 745 149 761 q 131 714 131 730 l 131 262 m 256 297 l 256 677 q 421 772 342 726 q 586 867 501 818 q 750 771 671 818 q 913 676 829 725 l 913 298 l 586 109 l 256 297 m 437 1255 l 436 1256 q 459 1232 444 1240 q 490 1224 475 1224 q 521 1231 504 1224 q 609 1283 565 1256 q 699 1335 654 1310 l 697 1333 q 728 1370 721 1345 q 721 1419 734 1396 q 684 1446 709 1440 q 636 1442 659 1451 l 460 1341 q 431 1302 437 1326 q 437 1255 424 1277 m 513 488 q 533 437 513 458 q 585 416 554 416 q 635 437 614 416 q 656 488 656 458 q 635 537 656 517 q 585 558 614 558 q 533 537 554 558 q 513 488 513 517 "},"":{"ha":1156,"x_min":120,"x_max":1038,"o":"m 132 962 q 155 938 140 946 q 186 930 170 930 q 203 932 196 930 q 216 937 210 934 q 397 1040 307 988 q 578 1145 488 1092 l 937 937 q 968 930 954 930 q 1022 959 1002 930 q 1029 1009 1036 982 q 999 1046 1023 1036 l 611 1270 q 577 1279 596 1281 q 545 1270 558 1278 l 157 1046 q 127 1009 134 1035 q 132 962 120 984 m 131 262 q 140 230 131 245 q 164 207 149 214 l 163 208 l 553 -20 q 585 -26 569 -26 q 614 -20 597 -26 l 1007 208 q 1028 232 1019 216 q 1038 262 1038 247 l 1038 714 q 1029 744 1038 729 q 1007 766 1021 758 l 614 993 q 553 993 582 1008 l 163 766 l 164 768 q 140 745 149 761 q 131 714 131 730 l 131 262 m 256 297 l 256 677 q 421 772 342 726 q 586 867 501 818 q 750 771 671 818 q 913 676 829 725 l 913 298 l 586 109 l 256 297 m 513 488 q 533 437 513 458 q 585 416 554 416 q 635 437 614 416 q 656 488 656 458 q 635 537 656 517 q 585 558 614 558 q 533 537 554 558 q 513 488 513 517 "},"":{"ha":1156,"x_min":131,"x_max":1038,"o":"m 131 262 q 140 230 131 245 q 164 207 149 214 l 163 208 l 553 -20 q 585 -26 569 -26 q 614 -20 597 -26 l 1007 208 q 1028 232 1019 216 q 1038 262 1038 247 l 1038 714 q 1029 744 1038 729 q 1007 766 1021 758 l 614 993 q 553 993 582 1008 l 163 766 l 164 768 q 140 745 149 761 q 131 714 131 730 l 131 262 m 232 1071 l 230 1072 q 253 1048 237 1057 q 284 1039 269 1039 q 319 1050 302 1040 l 316 1049 q 398 1097 357 1072 q 480 1145 440 1121 l 644 1048 q 677 1039 658 1038 q 709 1050 696 1041 l 903 1162 q 930 1198 924 1174 q 924 1246 937 1222 q 888 1272 913 1267 q 840 1268 863 1278 q 758 1220 800 1244 q 676 1173 716 1196 l 511 1268 q 479 1280 491 1281 q 456 1274 467 1279 l 254 1156 q 226 1119 232 1143 q 232 1071 220 1095 m 256 297 l 256 677 q 421 772 342 726 q 586 867 501 818 q 750 771 671 818 q 913 676 829 725 l 913 298 l 586 109 l 256 297 m 513 488 q 533 437 513 458 q 585 416 554 416 q 635 437 614 416 q 656 488 656 458 q 635 537 656 517 q 585 558 614 558 q 533 537 554 558 q 513 488 513 517 "},"":{"ha":1156,"x_min":131,"x_max":1038,"o":"m 131 262 q 140 230 131 245 q 164 207 149 214 l 163 208 l 553 -20 q 585 -26 569 -26 q 614 -20 597 -26 l 1007 208 q 1028 232 1019 216 q 1038 262 1038 247 l 1038 714 q 1029 744 1038 729 q 1007 766 1021 758 l 614 993 q 553 993 582 1008 l 163 766 l 164 768 q 140 745 149 761 q 131 714 131 730 l 131 262 m 256 297 l 256 677 q 421 772 342 726 q 586 867 501 818 q 750 771 671 818 q 913 676 829 725 l 913 298 l 586 109 l 256 297 m 347 1211 q 368 1161 347 1182 q 418 1141 389 1141 q 468 1161 448 1141 q 489 1211 489 1182 q 468 1261 489 1240 q 418 1282 448 1282 q 368 1261 389 1282 q 347 1211 347 1240 m 513 488 q 533 437 513 458 q 585 416 554 416 q 635 437 614 416 q 656 488 656 458 q 635 537 656 517 q 585 558 614 558 q 533 537 554 558 q 513 488 513 517 m 668 1211 q 689 1161 668 1182 q 739 1141 710 1141 q 789 1161 768 1141 q 810 1211 810 1182 q 789 1261 810 1240 q 739 1282 768 1282 q 689 1261 710 1282 q 668 1211 668 1240 "},"":{"ha":1156,"x_min":125,"x_max":1042,"o":"m 163 657 l 161 659 l 461 486 l 161 314 q 132 276 139 300 q 139 228 125 252 q 193 197 159 197 q 227 208 210 197 l 224 207 l 583 414 l 943 207 l 940 208 q 975 197 957 197 q 1006 206 990 197 q 1029 231 1023 215 l 1028 229 q 1034 277 1040 253 q 1006 314 1028 302 l 705 486 l 1006 659 l 1004 657 q 1035 694 1028 668 q 1028 743 1042 720 q 991 769 1017 764 q 943 765 966 774 l 583 558 l 224 765 q 176 770 201 775 q 139 743 150 764 q 132 694 125 720 q 163 657 139 668 "},"":{"ha":1156,"x_min":131,"x_max":1038,"o":"m 131 262 q 140 230 131 245 q 164 207 149 214 l 163 208 l 553 -20 q 585 -26 569 -26 q 614 -20 597 -26 l 1007 208 q 1028 232 1019 216 q 1038 262 1038 247 l 1038 714 q 1029 744 1038 729 q 1007 766 1021 758 l 614 993 q 553 993 582 1008 l 163 766 l 164 768 q 140 745 149 761 q 131 714 131 730 l 131 262 m 256 368 l 256 673 l 583 865 l 850 711 q 697 623 771 665 q 552 539 624 581 q 406 455 479 497 q 256 368 332 413 m 317 258 q 470 347 396 304 q 616 430 543 389 q 762 514 689 472 q 913 602 835 557 l 913 294 q 747 200 827 245 q 582 106 667 155 l 317 258 "},"":{"ha":1156,"x_min":110,"x_max":1047,"o":"m 110 275 q 139 220 110 238 l 546 -14 l 543 -12 q 578 -24 559 -24 q 612 -12 595 -23 l 610 -14 l 1015 220 q 1047 275 1047 241 l 1047 743 q 1029 788 1047 770 q 983 807 1011 807 q 938 788 957 807 q 920 743 920 770 l 920 311 l 578 114 l 236 311 l 236 743 q 218 788 236 770 q 172 807 200 807 q 128 788 146 807 q 110 743 110 770 l 110 275 m 460 1333 l 458 1335 l 635 1231 q 667 1224 651 1224 q 721 1253 701 1224 q 727 1303 735 1277 q 697 1341 720 1329 l 521 1442 q 473 1446 498 1452 q 436 1419 447 1440 q 429 1370 422 1396 q 460 1333 436 1344 m 505 509 q 526 457 505 478 q 578 436 547 436 q 630 457 608 436 q 652 509 652 478 q 630 561 652 539 q 578 582 608 582 q 526 561 547 582 q 505 509 505 539 "},"":{"ha":1156,"x_min":110,"x_max":1047,"o":"m 110 275 q 139 220 110 238 l 546 -14 l 543 -12 q 578 -24 559 -24 q 612 -12 595 -23 l 610 -14 l 1015 220 q 1047 275 1047 241 l 1047 743 q 1029 788 1047 770 q 983 807 1011 807 q 938 788 957 807 q 920 743 920 770 l 920 311 l 578 114 l 236 311 l 236 743 q 218 788 236 770 q 172 807 200 807 q 128 788 146 807 q 110 743 110 770 l 110 275 m 437 1255 l 436 1256 q 459 1232 444 1240 q 490 1224 475 1224 q 521 1231 504 1224 q 609 1283 565 1256 q 699 1335 654 1310 l 697 1333 q 728 1370 721 1345 q 721 1419 734 1396 q 684 1446 709 1440 q 636 1442 659 1451 l 460 1341 q 431 1302 437 1326 q 437 1255 424 1277 m 505 509 q 526 457 505 478 q 578 436 547 436 q 630 457 608 436 q 652 509 652 478 q 630 561 652 539 q 578 582 608 582 q 526 561 547 582 q 505 509 505 539 "},"":{"ha":1156,"x_min":110,"x_max":1047,"o":"m 110 275 q 139 220 110 238 l 546 -14 l 543 -12 q 578 -24 559 -24 q 612 -12 595 -23 l 610 -14 l 1015 220 q 1047 275 1047 241 l 1047 743 q 1029 788 1047 770 q 983 807 1011 807 q 938 788 957 807 q 920 743 920 770 l 920 311 l 578 114 l 236 311 l 236 743 q 218 788 236 770 q 172 807 200 807 q 128 788 146 807 q 110 743 110 770 l 110 275 m 132 962 q 155 938 140 946 q 186 930 170 930 q 203 932 196 930 q 216 937 210 934 q 397 1040 307 988 q 578 1145 488 1092 l 937 937 q 968 930 954 930 q 1022 959 1002 930 q 1029 1009 1036 982 q 999 1046 1023 1036 l 611 1270 q 577 1279 596 1281 q 545 1270 558 1278 l 157 1046 q 127 1009 134 1035 q 132 962 120 984 m 505 509 q 526 457 505 478 q 578 436 547 436 q 630 457 608 436 q 652 509 652 478 q 630 561 652 539 q 578 582 608 582 q 526 561 547 582 q 505 509 505 539 "},"":{"ha":1156,"x_min":110,"x_max":1047,"o":"m 110 275 q 139 220 110 238 l 546 -14 l 543 -12 q 578 -24 559 -24 q 612 -12 595 -23 l 610 -14 l 1015 220 q 1047 275 1047 241 l 1047 743 q 1029 788 1047 770 q 983 807 1011 807 q 938 788 957 807 q 920 743 920 770 l 920 311 l 578 114 l 236 311 l 236 743 q 218 788 236 770 q 172 807 200 807 q 128 788 146 807 q 110 743 110 770 l 110 275 m 347 1211 q 368 1161 347 1182 q 418 1141 389 1141 q 468 1161 448 1141 q 489 1211 489 1182 q 468 1261 489 1240 q 418 1282 448 1282 q 368 1261 389 1282 q 347 1211 347 1240 m 505 509 q 526 457 505 478 q 578 436 547 436 q 630 457 608 436 q 652 509 652 478 q 630 561 652 539 q 578 582 608 582 q 526 561 547 582 q 505 509 505 539 m 668 1211 q 689 1161 668 1182 q 739 1141 710 1141 q 789 1161 768 1141 q 810 1211 810 1182 q 789 1261 810 1240 q 739 1282 768 1282 q 689 1261 710 1282 q 668 1211 668 1240 "},"":{"ha":1156,"x_min":138,"x_max":1043,"o":"m 172 656 l 528 452 l 528 39 q 546 -6 528 12 q 590 -24 564 -24 q 635 -6 616 -24 q 653 39 653 12 l 653 452 l 1008 656 q 1037 692 1031 668 q 1031 741 1043 717 q 994 767 1020 762 q 946 762 968 772 l 590 558 l 233 762 l 235 762 q 186 770 212 777 q 149 739 159 763 l 150 741 q 144 692 138 717 q 172 656 150 668 m 437 869 l 436 871 q 459 847 444 856 q 490 839 475 839 q 521 846 504 839 q 610 898 566 871 q 699 950 654 925 l 697 949 q 728 985 721 960 q 721 1035 734 1011 q 684 1061 710 1055 q 636 1057 659 1067 l 460 956 q 431 917 437 942 q 437 869 424 892 "},"":{"ha":1156,"x_min":514,"x_max":1039,"o":"m 514 37 q 524 -2 514 12 q 548 -22 533 -17 q 579 -24 562 -26 q 611 -14 595 -22 l 1002 211 q 1032 262 1032 229 q 1002 314 1032 296 l 700 489 l 1014 671 q 1038 714 1038 686 q 1014 760 1039 743 l 607 994 q 580 1001 596 1000 q 549 996 564 1002 q 524 976 534 990 q 514 940 514 962 l 514 37 m 639 144 l 639 382 q 744 321 700 347 q 843 264 789 294 l 639 144 m 639 596 l 639 833 q 744 772 700 799 q 843 715 789 746 l 639 596 "},"":{"ha":1156,"x_min":140,"x_max":1040,"o":"m 140 268 q 158 223 140 241 q 203 205 176 205 q 247 223 229 205 q 265 268 265 241 l 265 607 q 342 563 307 583 q 412 524 378 543 q 480 484 446 504 q 557 440 515 464 q 589 431 572 432 q 623 440 606 429 q 769 524 694 482 q 916 607 844 566 l 916 268 q 933 223 916 241 q 978 205 951 205 q 1022 223 1004 205 q 1040 268 1040 241 l 1040 718 q 1033 749 1040 737 q 1011 768 1025 760 l 621 993 q 589 1001 606 1002 q 561 993 572 1000 l 171 770 q 140 729 140 751 l 140 268 m 325 715 l 590 867 q 725 791 661 827 q 856 715 788 755 l 590 564 q 456 640 519 604 q 325 715 393 675 m 460 1333 l 458 1335 l 635 1231 q 667 1223 651 1223 q 721 1253 701 1223 q 727 1302 734 1276 q 697 1340 720 1328 l 521 1442 q 473 1446 498 1451 q 436 1419 447 1440 q 429 1370 422 1396 q 460 1333 436 1344 m 519 45 q 540 -5 519 16 q 590 -26 561 -26 q 640 -5 619 -26 q 661 45 661 16 q 640 95 661 74 q 590 115 619 115 q 540 95 561 115 q 519 45 519 74 "},"":{"ha":1156,"x_min":140,"x_max":1040,"o":"m 140 268 q 158 223 140 241 q 203 205 176 205 q 247 223 229 205 q 265 268 265 241 l 265 607 q 342 563 307 583 q 412 524 378 543 q 480 484 446 504 q 557 440 515 464 q 589 431 572 432 q 623 440 606 429 q 769 524 694 482 q 916 607 844 566 l 916 268 q 933 223 916 241 q 978 205 951 205 q 1022 223 1004 205 q 1040 268 1040 241 l 1040 718 q 1033 749 1040 737 q 1011 768 1025 760 l 621 993 q 589 1001 606 1002 q 561 993 572 1000 l 171 770 q 140 729 140 751 l 140 268 m 325 715 l 590 867 q 725 791 661 827 q 856 715 788 755 l 590 564 q 456 640 519 604 q 325 715 393 675 m 437 1254 l 436 1255 q 459 1232 444 1240 q 490 1223 475 1223 q 521 1231 504 1223 q 610 1282 566 1255 q 699 1335 654 1310 l 697 1333 q 728 1370 721 1344 q 721 1419 734 1396 q 684 1446 710 1440 q 636 1442 659 1451 l 460 1340 q 431 1301 437 1326 q 437 1254 424 1276 m 519 45 q 540 -5 519 16 q 590 -26 561 -26 q 640 -5 619 -26 q 661 45 661 16 q 640 95 661 74 q 590 115 619 115 q 540 95 561 115 q 519 45 519 74 "},"":{"ha":1156,"x_min":120,"x_max":1040,"o":"m 134 960 l 132 961 q 155 938 140 946 q 186 929 170 929 q 203 931 196 929 q 216 936 210 933 q 397 1040 307 987 q 578 1145 488 1092 l 937 936 q 968 929 954 929 q 1022 958 1002 929 q 1029 1008 1036 982 q 999 1046 1023 1035 l 1000 1044 l 611 1270 q 573 1278 591 1280 q 545 1270 555 1276 l 155 1044 l 157 1046 q 127 1009 134 1035 q 134 960 120 983 m 140 268 q 158 223 140 241 q 203 205 176 205 q 247 223 229 205 q 265 268 265 241 l 265 607 q 342 563 307 583 q 412 524 378 543 q 480 484 446 504 q 557 440 515 464 q 589 431 572 432 q 623 440 606 429 q 769 524 694 482 q 916 607 844 566 l 916 268 q 933 223 916 241 q 978 205 951 205 q 1022 223 1004 205 q 1040 268 1040 241 l 1040 718 q 1033 749 1040 737 q 1011 768 1025 760 l 621 993 q 589 1001 606 1002 q 561 993 572 1000 l 171 770 q 140 729 140 751 l 140 268 m 325 715 l 590 867 q 725 791 661 827 q 856 715 788 755 l 590 564 q 456 640 519 604 q 325 715 393 675 m 519 45 q 540 -5 519 16 q 590 -26 561 -26 q 640 -5 619 -26 q 661 45 661 16 q 640 95 661 74 q 590 115 619 115 q 540 95 561 115 q 519 45 519 74 "},"":{"ha":1156,"x_min":140,"x_max":1040,"o":"m 140 268 q 158 223 140 241 q 203 205 176 205 q 247 223 229 205 q 265 268 265 241 l 265 607 q 342 563 307 583 q 412 524 378 543 q 480 484 446 504 q 557 440 515 464 q 589 431 572 432 q 623 440 606 429 q 769 524 694 482 q 916 607 844 566 l 916 268 q 933 223 916 241 q 978 205 951 205 q 1022 223 1004 205 q 1040 268 1040 241 l 1040 718 q 1033 749 1040 737 q 1011 768 1025 760 l 621 993 q 589 1001 606 1002 q 561 993 572 1000 l 171 770 q 140 729 140 751 l 140 268 m 232 1071 l 231 1072 q 253 1048 237 1057 q 285 1039 269 1039 q 319 1050 302 1039 l 317 1048 q 399 1097 357 1072 q 481 1145 441 1121 l 644 1047 q 679 1040 660 1040 q 710 1050 698 1040 l 903 1161 q 931 1198 925 1174 q 925 1246 937 1222 q 888 1272 914 1267 q 840 1268 863 1278 q 758 1220 800 1244 q 676 1173 716 1196 l 511 1268 q 478 1279 492 1279 q 457 1275 464 1279 q 431 1260 453 1274 q 370 1224 411 1249 q 254 1156 330 1200 q 226 1119 232 1143 q 232 1071 220 1095 m 325 715 l 590 867 q 725 791 661 827 q 856 715 788 755 l 590 564 q 456 640 519 604 q 325 715 393 675 m 519 45 q 540 -5 519 16 q 590 -26 561 -26 q 640 -5 619 -26 q 661 45 661 16 q 640 95 661 74 q 590 115 619 115 q 540 95 561 115 q 519 45 519 74 "},"":{"ha":1156,"x_min":140,"x_max":1040,"o":"m 140 268 q 158 223 140 241 q 203 205 176 205 q 247 223 229 205 q 265 268 265 241 l 265 607 q 342 563 307 583 q 412 524 378 543 q 480 484 446 504 q 557 440 515 464 q 589 431 572 432 q 623 440 606 429 q 769 524 694 482 q 916 607 844 566 l 916 268 q 933 223 916 241 q 978 205 951 205 q 1022 223 1004 205 q 1040 268 1040 241 l 1040 718 q 1033 749 1040 737 q 1011 768 1025 760 l 621 993 q 589 1001 606 1002 q 561 993 572 1000 l 171 770 q 140 729 140 751 l 140 268 m 325 715 l 590 867 q 725 791 661 827 q 856 715 788 755 l 590 564 q 456 640 519 604 q 325 715 393 675 m 347 1211 q 368 1161 347 1182 q 418 1140 389 1140 q 468 1161 447 1140 q 489 1211 489 1182 q 468 1261 489 1240 q 418 1282 447 1282 q 368 1261 389 1282 q 347 1211 347 1240 m 519 45 q 540 -5 519 16 q 590 -26 561 -26 q 640 -5 619 -26 q 661 45 661 16 q 640 95 661 74 q 590 115 619 115 q 540 95 561 115 q 519 45 519 74 m 668 1211 q 689 1161 668 1182 q 739 1140 710 1140 q 789 1161 768 1140 q 810 1211 810 1182 q 789 1261 810 1240 q 739 1282 768 1282 q 689 1261 710 1282 q 668 1211 668 1240 "},"":{"ha":1156,"x_min":140,"x_max":1040,"o":"m 140 268 q 158 223 140 241 q 203 205 176 205 q 247 223 229 205 q 265 268 265 241 l 265 607 q 342 563 307 583 q 412 524 378 543 q 480 484 446 504 q 557 440 515 464 q 589 431 572 432 q 623 440 606 429 q 769 524 694 482 q 916 607 844 566 l 916 268 q 933 223 916 241 q 978 205 951 205 q 1022 223 1004 205 q 1040 268 1040 241 l 1040 718 q 1033 749 1040 737 q 1011 768 1025 760 l 621 993 q 589 1001 606 1002 q 561 993 572 1000 l 171 770 q 140 729 140 751 l 140 268 m 325 715 l 590 867 q 725 791 661 827 q 856 715 788 755 l 590 564 q 456 640 519 604 q 325 715 393 675 m 519 45 q 540 -5 519 16 q 590 -26 561 -26 q 640 -5 619 -26 q 661 45 661 16 q 640 95 661 74 q 590 115 619 115 q 540 95 561 115 q 519 45 519 74 m 519 989 q 540 939 519 960 q 591 918 561 918 q 642 939 621 918 q 663 989 663 960 q 642 1040 663 1019 q 591 1061 621 1061 q 540 1040 561 1061 q 519 989 519 1019 "},"":{"ha":2313,"x_min":302,"x_max":1980,"o":"m 302 264 q 321 221 302 239 q 366 203 339 203 q 410 221 392 203 q 428 264 428 239 l 428 603 q 504 559 469 579 q 574 519 539 539 q 643 480 608 500 q 720 436 678 460 q 752 427 734 427 q 786 436 770 427 l 1078 604 l 1078 265 q 1086 233 1078 248 q 1107 211 1095 219 l 1496 -14 q 1528 -21 1512 -21 q 1557 -14 1540 -20 l 1946 211 q 1974 248 1968 224 q 1968 296 1980 272 q 1931 324 1956 318 q 1883 318 1907 330 l 1528 113 l 1263 264 l 1557 433 q 1580 456 1572 441 q 1589 488 1589 471 q 1558 542 1589 522 l 1263 711 l 1528 864 l 1883 659 q 1931 654 1906 648 q 1968 681 1957 660 q 1974 728 1980 704 q 1946 765 1968 753 l 1557 989 q 1496 989 1525 1004 l 1140 783 l 786 987 q 746 997 764 1002 q 726 991 728 991 l 334 765 q 312 744 319 757 q 304 720 304 730 l 304 719 q 304 707 304 718 q 304 671 304 696 q 304 595 304 646 q 303 464 304 545 q 302 264 302 383 m 489 711 q 558 752 526 733 q 621 789 590 771 q 684 826 652 807 q 753 865 715 844 l 1017 711 l 753 559 l 489 711 m 682 40 q 703 -10 682 11 q 753 -31 724 -31 q 803 -10 782 -31 q 823 40 823 11 q 803 92 823 71 q 753 113 782 113 q 703 92 724 113 q 682 40 682 71 m 1203 371 l 1203 604 l 1404 488 q 1349 456 1373 471 q 1300 428 1324 441 q 1253 400 1276 414 q 1203 371 1230 387 "},"":{"ha":1156,"x_min":132,"x_max":1042,"o":"m 132 265 q 141 235 132 250 q 163 211 151 219 l 640 -64 q 616 -78 625 -72 q 598 -88 607 -83 q 581 -98 590 -93 q 558 -111 572 -103 q 530 -149 536 -125 q 536 -197 523 -174 q 590 -228 555 -228 q 606 -225 600 -228 q 619 -220 612 -222 l 798 -117 q 826 -62 829 -96 q 791 -8 823 -28 l 708 40 l 1007 211 q 1036 248 1029 224 q 1031 294 1042 272 q 992 323 1018 317 q 945 318 966 329 l 647 147 l 647 833 q 725 789 689 810 q 797 748 761 768 q 868 707 832 728 q 945 663 905 686 q 992 658 965 652 q 1031 685 1019 664 q 1036 733 1042 708 q 1007 770 1029 758 l 615 996 q 554 996 583 1011 q 460 942 510 971 q 358 883 410 913 q 257 824 307 852 q 163 770 208 795 q 141 746 150 761 q 132 717 132 730 l 132 265 m 257 301 l 257 679 q 390 757 328 720 q 522 835 453 795 l 522 146 q 451 187 484 168 q 389 224 419 205 q 326 261 358 243 q 257 301 294 280 "},"":{"ha":1156,"x_min":126,"x_max":1039,"o":"m 126 265 q 157 211 126 231 l 536 -8 q 581 -21 559 -22 q 619 -8 602 -19 l 1003 211 q 1031 249 1023 225 q 1025 296 1038 273 q 988 324 1013 318 q 940 318 964 330 q 760 215 850 267 q 581 110 671 163 l 313 265 l 611 437 l 610 436 q 643 490 643 452 q 611 545 643 524 l 313 715 l 581 869 l 940 663 q 988 659 962 653 q 1025 685 1014 664 q 1031 731 1039 707 q 1003 770 1024 756 l 610 996 q 549 996 578 1011 l 158 770 l 160 771 q 126 717 126 755 q 157 663 126 682 l 458 490 l 158 318 l 160 319 q 126 265 126 304 m 460 1333 l 458 1335 l 635 1231 q 667 1223 651 1223 q 721 1253 701 1223 q 727 1302 734 1276 q 697 1340 720 1328 l 521 1442 q 473 1446 498 1451 q 436 1419 447 1440 q 429 1370 422 1396 q 460 1333 436 1344 "},"":{"ha":1156,"x_min":126,"x_max":1039,"o":"m 126 265 q 157 211 126 231 l 549 -16 l 559 -20 q 581 -24 568 -24 q 593 -22 587 -24 q 606 -18 599 -21 q 614 -13 611 -16 q 619 -8 616 -11 l 1003 211 q 1031 249 1023 225 q 1025 296 1038 273 q 988 324 1013 318 q 940 318 964 330 q 760 215 850 267 q 581 110 671 163 l 313 265 l 611 437 l 610 436 q 643 490 643 452 q 611 545 643 524 l 313 715 l 581 869 l 940 663 q 988 659 962 653 q 1025 685 1014 664 q 1031 731 1039 707 q 1003 770 1024 756 l 610 996 q 549 996 578 1011 l 158 770 l 160 771 q 126 717 126 755 q 157 663 126 682 l 458 490 l 158 318 l 160 319 q 126 265 126 304 m 437 1255 l 436 1256 q 459 1232 444 1240 q 490 1224 475 1224 q 521 1231 504 1224 q 609 1283 565 1256 q 699 1335 654 1310 l 697 1333 q 728 1370 721 1345 q 721 1419 734 1396 q 684 1446 709 1440 q 636 1442 659 1451 l 460 1341 q 431 1302 437 1326 q 437 1255 424 1277 "},"":{"ha":1156,"x_min":120,"x_max":1039,"o":"m 126 265 q 157 211 126 231 l 549 -16 l 559 -20 q 581 -24 568 -24 q 593 -22 587 -24 q 606 -18 599 -21 q 614 -13 611 -16 q 619 -8 616 -11 l 1003 211 q 1031 249 1023 225 q 1025 296 1038 273 q 988 324 1013 318 q 940 318 964 330 q 760 215 850 267 q 581 110 671 163 l 313 265 l 611 437 l 610 436 q 643 490 643 452 q 611 545 643 524 l 313 715 l 581 869 l 940 663 q 988 659 962 653 q 1025 685 1014 664 q 1031 731 1039 707 q 1003 770 1024 756 l 610 996 q 549 996 578 1011 l 158 770 l 160 771 q 126 717 126 755 q 157 663 126 682 l 458 490 l 158 318 l 160 319 q 126 265 126 304 m 132 962 q 155 938 140 946 q 186 930 170 930 q 203 932 196 930 q 216 937 210 934 q 397 1040 307 988 q 578 1145 488 1092 l 937 937 q 968 930 954 930 q 1022 959 1002 930 q 1029 1009 1036 982 q 999 1046 1023 1036 l 611 1270 q 577 1279 596 1281 q 545 1270 558 1278 l 157 1046 q 127 1009 134 1035 q 132 962 120 984 "},"":{"ha":1156,"x_min":126,"x_max":1039,"o":"m 126 265 q 157 211 126 231 l 549 -16 l 559 -20 q 581 -24 568 -24 q 593 -22 587 -24 q 606 -18 599 -21 q 614 -13 611 -16 q 619 -8 616 -11 l 1003 211 q 1031 249 1023 225 q 1025 296 1038 273 q 988 324 1013 318 q 940 318 964 330 q 760 215 850 267 q 581 110 671 163 l 313 265 l 611 437 l 610 436 q 643 490 643 452 q 611 545 643 524 l 313 715 l 581 869 l 940 663 q 988 659 962 653 q 1025 685 1014 664 q 1031 731 1039 707 q 1003 770 1024 756 l 610 996 q 549 996 578 1011 l 158 770 l 160 771 q 126 717 126 755 q 157 663 126 682 l 458 490 l 158 318 l 160 319 q 126 265 126 304 m 347 1211 q 368 1161 347 1182 q 418 1141 389 1141 q 468 1161 448 1141 q 489 1211 489 1182 q 468 1261 489 1240 q 418 1282 448 1282 q 368 1261 389 1282 q 347 1211 347 1240 m 668 1211 q 689 1161 668 1182 q 739 1141 710 1141 q 789 1161 768 1141 q 810 1211 810 1182 q 789 1261 810 1240 q 739 1282 768 1282 q 689 1261 710 1282 q 668 1211 668 1240 "},"":{"ha":1156,"x_min":422,"x_max":734,"o":"m 460 949 l 458 950 l 635 846 q 667 839 651 839 q 721 868 701 839 q 727 918 734 892 q 697 956 720 943 l 521 1057 q 473 1061 498 1067 q 436 1035 447 1056 q 429 985 422 1011 q 460 949 436 960 m 513 37 q 531 -7 513 11 q 575 -25 549 -25 q 618 -7 599 -25 q 637 37 637 11 l 637 708 q 618 751 637 732 q 575 771 599 771 q 531 751 549 771 q 513 708 513 732 l 513 37 "},"":{"ha":1156,"x_min":406,"x_max":718,"o":"m 419 868 q 473 839 437 839 q 504 846 487 839 q 593 898 549 871 q 682 950 637 925 l 681 949 q 711 985 704 960 q 704 1035 718 1011 q 667 1061 693 1055 q 619 1057 642 1067 l 443 956 q 413 918 421 943 q 419 868 406 892 m 503 37 q 522 -7 503 11 q 566 -25 542 -25 q 610 -7 591 -25 q 628 37 628 11 l 628 708 q 610 751 628 732 q 566 771 592 771 q 522 751 542 771 q 503 708 503 732 l 503 37 "},"":{"ha":1156,"x_min":120,"x_max":1036,"o":"m 134 682 l 132 684 q 155 660 140 668 q 186 652 170 652 q 203 654 196 652 q 216 659 210 656 q 397 762 307 710 q 578 867 488 814 l 937 659 q 968 652 954 652 q 1022 681 1002 652 q 1029 731 1036 704 q 999 768 1023 758 l 1000 766 l 611 991 q 577 1000 595 1002 q 545 991 560 998 l 155 766 l 157 768 q 127 731 134 757 q 134 682 120 706 m 513 37 q 531 -7 513 11 q 575 -25 549 -25 q 618 -7 599 -25 q 637 37 637 11 l 637 708 q 618 751 637 732 q 575 771 599 771 q 531 751 549 771 q 513 708 513 732 l 513 37 "},"":{"ha":1156,"x_min":347,"x_max":810,"o":"m 347 861 q 368 811 347 832 q 418 790 389 790 q 468 811 447 790 q 489 861 489 832 q 468 911 489 890 q 418 932 447 932 q 368 911 389 932 q 347 861 347 890 m 513 37 q 531 -7 513 11 q 575 -25 549 -25 q 618 -7 599 -25 q 637 37 637 11 l 637 708 q 618 751 637 732 q 575 771 599 771 q 531 751 549 771 q 513 708 513 732 l 513 37 m 668 861 q 689 811 668 832 q 739 790 710 790 q 789 811 768 790 q 810 861 810 832 q 789 911 810 890 q 739 932 768 932 q 689 911 710 932 q 668 861 668 890 "},"":{"ha":1156,"x_min":0,"x_max":0,"o":""},"":{"ha":1156,"x_min":136,"x_max":1028,"o":"m 136 262 q 154 219 136 237 q 199 201 172 201 q 242 219 224 201 q 260 262 260 237 l 260 600 l 935 208 q 997 208 966 193 q 1020 233 1011 218 q 1028 262 1028 247 l 1028 707 q 1010 750 1028 732 q 966 768 991 768 q 922 750 940 768 q 904 707 904 732 l 904 370 l 229 760 q 198 768 215 768 q 167 760 180 768 q 136 707 136 740 l 136 262 m 232 1071 l 230 1072 q 253 1048 237 1057 q 284 1039 269 1039 q 319 1050 302 1040 l 316 1049 q 398 1097 357 1072 q 480 1145 440 1121 l 644 1048 q 677 1039 658 1038 q 709 1050 696 1041 l 903 1162 q 930 1198 924 1174 q 924 1246 937 1222 q 888 1272 913 1267 q 840 1268 863 1278 q 758 1220 800 1244 q 676 1173 716 1196 l 511 1268 q 479 1280 491 1281 q 456 1274 467 1279 l 254 1156 q 226 1119 232 1143 q 232 1071 220 1095 m 511 41 q 532 -8 511 12 q 582 -29 553 -29 q 632 -8 611 -29 q 653 41 653 12 q 632 92 653 71 q 582 113 611 113 q 532 92 553 113 q 511 41 511 71 "},"":{"ha":1156,"x_min":131,"x_max":1038,"o":"m 131 262 q 140 230 131 245 q 164 207 149 214 l 163 208 l 553 -20 q 585 -26 569 -26 q 614 -20 597 -26 l 1007 208 q 1028 232 1019 216 q 1038 262 1038 247 l 1038 714 q 1029 744 1038 729 q 1007 766 1021 758 l 614 993 q 553 993 582 1008 l 163 766 l 164 768 q 140 745 149 761 q 131 714 131 730 l 131 262 m 256 297 l 256 677 q 421 772 342 726 q 586 867 501 818 q 750 771 671 818 q 913 676 829 725 l 913 298 l 586 109 l 256 297 m 460 1333 l 458 1335 l 635 1231 q 667 1224 651 1224 q 721 1253 701 1224 q 727 1303 735 1277 q 697 1341 720 1329 l 521 1442 q 473 1446 498 1452 q 436 1419 447 1440 q 429 1370 422 1396 q 460 1333 436 1344 m 513 488 q 533 437 513 458 q 585 416 554 416 q 635 437 614 416 q 656 488 656 458 q 635 537 656 517 q 585 558 614 558 q 533 537 554 558 q 513 488 513 517 "},"":{"ha":1156,"x_min":131,"x_max":1038,"o":"m 131 262 q 140 230 131 245 q 164 207 149 214 l 163 208 l 553 -20 q 585 -26 569 -26 q 614 -20 597 -26 l 1007 208 q 1028 232 1019 216 q 1038 262 1038 247 l 1038 714 q 1029 744 1038 729 q 1007 766 1021 758 l 614 993 q 553 993 582 1008 l 163 766 l 164 768 q 140 745 149 761 q 131 714 131 730 l 131 262 m 256 297 l 256 677 q 421 772 342 726 q 586 867 501 818 q 750 771 671 818 q 913 676 829 725 l 913 298 l 586 109 l 256 297 m 437 1255 l 436 1256 q 459 1232 444 1240 q 490 1224 475 1224 q 521 1231 504 1224 q 609 1283 565 1256 q 699 1335 654 1310 l 697 1333 q 728 1370 721 1345 q 721 1419 734 1396 q 684 1446 709 1440 q 636 1442 659 1451 l 460 1341 q 431 1302 437 1326 q 437 1255 424 1277 m 513 488 q 533 437 513 458 q 585 416 554 416 q 635 437 614 416 q 656 488 656 458 q 635 537 656 517 q 585 558 614 558 q 533 537 554 558 q 513 488 513 517 "},"":{"ha":1156,"x_min":120,"x_max":1038,"o":"m 132 962 q 155 938 140 946 q 186 930 170 930 q 203 932 196 930 q 216 937 210 934 q 397 1040 307 988 q 578 1145 488 1092 l 937 937 q 968 930 954 930 q 1022 959 1002 930 q 1029 1009 1036 982 q 999 1046 1023 1036 l 611 1270 q 577 1279 596 1281 q 545 1270 558 1278 l 157 1046 q 127 1009 134 1035 q 132 962 120 984 m 131 262 q 140 230 131 245 q 164 207 149 214 l 163 208 l 553 -20 q 585 -26 569 -26 q 614 -20 597 -26 l 1007 208 q 1028 232 1019 216 q 1038 262 1038 247 l 1038 714 q 1029 744 1038 729 q 1007 766 1021 758 l 614 993 q 553 993 582 1008 l 163 766 l 164 768 q 140 745 149 761 q 131 714 131 730 l 131 262 m 256 297 l 256 677 q 421 772 342 726 q 586 867 501 818 q 750 771 671 818 q 913 676 829 725 l 913 298 l 586 109 l 256 297 m 513 488 q 533 437 513 458 q 585 416 554 416 q 635 437 614 416 q 656 488 656 458 q 635 537 656 517 q 585 558 614 558 q 533 537 554 558 q 513 488 513 517 "},"":{"ha":1156,"x_min":131,"x_max":1038,"o":"m 131 262 q 140 230 131 245 q 164 207 149 214 l 163 208 l 553 -20 q 585 -26 569 -26 q 614 -20 597 -26 l 1007 208 q 1028 232 1019 216 q 1038 262 1038 247 l 1038 714 q 1029 744 1038 729 q 1007 766 1021 758 l 614 993 q 553 993 582 1008 l 163 766 l 164 768 q 140 745 149 761 q 131 714 131 730 l 131 262 m 232 1071 l 230 1072 q 253 1048 237 1057 q 284 1039 269 1039 q 319 1050 302 1040 l 316 1049 q 398 1097 357 1072 q 480 1145 440 1121 l 644 1048 q 677 1039 658 1038 q 709 1050 696 1041 l 903 1162 q 930 1198 924 1174 q 924 1246 937 1222 q 888 1272 913 1267 q 840 1268 863 1278 q 758 1220 800 1244 q 676 1173 716 1196 l 511 1268 q 479 1280 491 1281 q 456 1274 467 1279 l 254 1156 q 226 1119 232 1143 q 232 1071 220 1095 m 256 297 l 256 677 q 421 772 342 726 q 586 867 501 818 q 750 771 671 818 q 913 676 829 725 l 913 298 l 586 109 l 256 297 m 513 488 q 533 437 513 458 q 585 416 554 416 q 635 437 614 416 q 656 488 656 458 q 635 537 656 517 q 585 558 614 558 q 533 537 554 558 q 513 488 513 517 "},"":{"ha":1156,"x_min":131,"x_max":1038,"o":"m 131 262 q 140 230 131 245 q 164 207 149 214 l 163 208 l 553 -20 q 585 -26 569 -26 q 614 -20 597 -26 l 1007 208 q 1028 232 1019 216 q 1038 262 1038 247 l 1038 714 q 1029 744 1038 729 q 1007 766 1021 758 l 614 993 q 553 993 582 1008 l 163 766 l 164 768 q 140 745 149 761 q 131 714 131 730 l 131 262 m 256 297 l 256 677 q 421 772 342 726 q 586 867 501 818 q 750 771 671 818 q 913 676 829 725 l 913 298 l 586 109 l 256 297 m 347 1211 q 368 1161 347 1182 q 418 1141 389 1141 q 468 1161 448 1141 q 489 1211 489 1182 q 468 1261 489 1240 q 418 1282 448 1282 q 368 1261 389 1282 q 347 1211 347 1240 m 513 488 q 533 437 513 458 q 585 416 554 416 q 635 437 614 416 q 656 488 656 458 q 635 537 656 517 q 585 558 614 558 q 533 537 554 558 q 513 488 513 517 m 668 1211 q 689 1161 668 1182 q 739 1141 710 1141 q 789 1161 768 1141 q 810 1211 810 1182 q 789 1261 810 1240 q 739 1282 768 1282 q 689 1261 710 1282 q 668 1211 668 1240 "},"":{"ha":1156,"x_min":131,"x_max":1022,"o":"m 131 486 q 149 442 131 460 q 192 424 167 424 l 960 424 q 1004 442 986 424 q 1022 486 1022 460 q 1004 529 1022 511 q 960 547 986 547 l 192 547 q 149 529 167 547 q 131 486 131 511 m 505 43 q 526 -7 505 14 q 576 -28 547 -28 q 626 -7 606 -28 q 647 43 647 14 q 626 93 647 72 q 576 114 606 114 q 526 93 547 114 q 505 43 505 72 m 513 929 q 533 879 513 900 q 583 859 554 859 q 633 879 612 859 q 654 929 654 900 q 633 979 654 958 q 583 1000 612 1000 q 533 979 554 1000 q 513 929 513 958 "},"":{"ha":1156,"x_min":131,"x_max":1038,"o":"m 131 262 q 140 230 131 245 q 164 207 149 214 l 163 208 l 553 -20 q 585 -26 569 -26 q 614 -20 597 -26 l 1007 208 q 1028 232 1019 216 q 1038 262 1038 247 l 1038 714 q 1029 744 1038 729 q 1007 766 1021 758 l 614 993 q 553 993 582 1008 l 163 766 l 164 768 q 140 745 149 761 q 131 714 131 730 l 131 262 m 256 368 l 256 673 l 583 865 l 850 711 q 697 623 771 665 q 552 539 624 581 q 406 455 479 497 q 256 368 332 413 m 317 258 q 470 347 396 304 q 616 430 543 389 q 762 514 689 472 q 913 602 835 557 l 913 294 q 747 200 827 245 q 582 106 667 155 l 317 258 "},"":{"ha":1156,"x_min":110,"x_max":1047,"o":"m 110 275 q 139 220 110 238 l 546 -14 l 543 -12 q 578 -24 559 -24 q 612 -12 595 -23 l 610 -14 l 1015 220 q 1047 275 1047 241 l 1047 743 q 1029 788 1047 770 q 983 807 1011 807 q 938 788 957 807 q 920 743 920 770 l 920 311 l 578 114 l 236 311 l 236 743 q 218 788 236 770 q 172 807 200 807 q 128 788 146 807 q 110 743 110 770 l 110 275 m 460 1333 l 458 1335 l 635 1231 q 667 1224 651 1224 q 721 1253 701 1224 q 727 1303 735 1277 q 697 1341 720 1329 l 521 1442 q 473 1446 498 1452 q 436 1419 447 1440 q 429 1370 422 1396 q 460 1333 436 1344 m 505 509 q 526 457 505 478 q 578 436 547 436 q 630 457 608 436 q 652 509 652 478 q 630 561 652 539 q 578 582 608 582 q 526 561 547 582 q 505 509 505 539 "},"":{"ha":1156,"x_min":110,"x_max":1047,"o":"m 110 275 q 139 220 110 238 l 546 -14 l 543 -12 q 578 -24 559 -24 q 612 -12 595 -23 l 610 -14 l 1015 220 q 1047 275 1047 241 l 1047 743 q 1029 788 1047 770 q 983 807 1011 807 q 938 788 957 807 q 920 743 920 770 l 920 311 l 578 114 l 236 311 l 236 743 q 218 788 236 770 q 172 807 200 807 q 128 788 146 807 q 110 743 110 770 l 110 275 m 437 1255 l 436 1256 q 459 1232 444 1240 q 490 1224 475 1224 q 521 1231 504 1224 q 609 1283 565 1256 q 699 1335 654 1310 l 697 1333 q 728 1370 721 1345 q 721 1419 734 1396 q 684 1446 709 1440 q 636 1442 659 1451 l 460 1341 q 431 1302 437 1326 q 437 1255 424 1277 m 505 509 q 526 457 505 478 q 578 436 547 436 q 630 457 608 436 q 652 509 652 478 q 630 561 652 539 q 578 582 608 582 q 526 561 547 582 q 505 509 505 539 "},"":{"ha":1156,"x_min":110,"x_max":1047,"o":"m 110 275 q 139 220 110 238 l 546 -14 l 543 -12 q 578 -24 559 -24 q 612 -12 595 -23 l 610 -14 l 1015 220 q 1047 275 1047 241 l 1047 743 q 1029 788 1047 770 q 983 807 1011 807 q 938 788 957 807 q 920 743 920 770 l 920 311 l 578 114 l 236 311 l 236 743 q 218 788 236 770 q 172 807 200 807 q 128 788 146 807 q 110 743 110 770 l 110 275 m 132 962 q 155 938 140 946 q 186 930 170 930 q 203 932 196 930 q 216 937 210 934 q 397 1040 307 988 q 578 1145 488 1092 l 937 937 q 968 930 954 930 q 1022 959 1002 930 q 1029 1009 1036 982 q 999 1046 1023 1036 l 611 1270 q 577 1279 596 1281 q 545 1270 558 1278 l 157 1046 q 127 1009 134 1035 q 132 962 120 984 m 505 509 q 526 457 505 478 q 578 436 547 436 q 630 457 608 436 q 652 509 652 478 q 630 561 652 539 q 578 582 608 582 q 526 561 547 582 q 505 509 505 539 "},"":{"ha":1156,"x_min":110,"x_max":1047,"o":"m 110 275 q 139 220 110 238 l 546 -14 l 543 -12 q 578 -24 559 -24 q 612 -12 595 -23 l 610 -14 l 1015 220 q 1047 275 1047 241 l 1047 743 q 1029 788 1047 770 q 983 807 1011 807 q 938 788 957 807 q 920 743 920 770 l 920 311 l 578 114 l 236 311 l 236 743 q 218 788 236 770 q 172 807 200 807 q 128 788 146 807 q 110 743 110 770 l 110 275 m 347 1211 q 368 1161 347 1182 q 418 1141 389 1141 q 468 1161 448 1141 q 489 1211 489 1182 q 468 1261 489 1240 q 418 1282 448 1282 q 368 1261 389 1282 q 347 1211 347 1240 m 505 509 q 526 457 505 478 q 578 436 547 436 q 630 457 608 436 q 652 509 652 478 q 630 561 652 539 q 578 582 608 582 q 526 561 547 582 q 505 509 505 539 m 668 1211 q 689 1161 668 1182 q 739 1141 710 1141 q 789 1161 768 1141 q 810 1211 810 1182 q 789 1261 810 1240 q 739 1282 768 1282 q 689 1261 710 1282 q 668 1211 668 1240 "},"":{"ha":1156,"x_min":138,"x_max":1043,"o":"m 172 656 l 528 452 l 528 39 q 546 -6 528 12 q 590 -24 564 -24 q 635 -6 616 -24 q 653 39 653 12 l 653 452 l 1008 656 q 1037 692 1031 668 q 1031 741 1043 717 q 994 767 1020 762 q 946 762 968 772 l 590 558 l 233 762 l 235 762 q 186 770 212 777 q 149 739 159 763 l 150 741 q 144 692 138 717 q 172 656 150 668 m 437 869 l 436 871 q 459 847 444 856 q 490 839 475 839 q 521 846 504 839 q 610 898 566 871 q 699 950 654 925 l 697 949 q 728 985 721 960 q 721 1035 734 1011 q 684 1061 710 1055 q 636 1057 659 1067 l 460 956 q 431 917 437 942 q 437 869 424 892 "},"":{"ha":1156,"x_min":138,"x_max":1043,"o":"m 172 656 l 528 452 l 528 39 q 546 -6 528 12 q 590 -24 564 -24 q 635 -6 616 -24 q 653 39 653 12 l 653 452 l 1008 656 q 1037 692 1031 668 q 1031 741 1043 717 q 994 767 1020 762 q 946 762 968 772 l 590 558 l 233 762 l 235 762 q 186 770 212 777 q 149 739 159 763 l 150 741 q 144 692 138 717 q 172 656 150 668 m 355 933 q 376 883 355 904 q 427 863 397 863 q 476 883 456 863 q 497 933 497 904 q 476 983 497 962 q 427 1004 456 1004 q 376 983 397 1004 q 355 933 355 962 m 676 933 q 697 883 676 904 q 747 863 718 863 q 797 883 777 863 q 818 933 818 904 q 797 983 818 962 q 747 1004 777 1004 q 697 983 718 1004 q 676 933 676 962 "},"":{"ha":2313,"x_min":300,"x_max":2001,"o":"m 300 261 q 312 227 300 241 q 335 205 324 212 l 726 -21 q 732 -24 729 -22 q 737 -25 734 -25 q 747 -27 743 -28 q 753 -26 750 -26 q 762 -26 758 -26 q 772 -24 766 -26 q 775 -23 774 -24 q 778 -22 777 -22 q 961 84 868 31 q 1145 191 1053 138 l 1508 -21 q 1514 -24 1511 -22 q 1520 -25 1517 -25 q 1529 -27 1525 -28 q 1535 -26 1532 -26 q 1544 -26 1540 -26 q 1554 -24 1548 -26 q 1557 -23 1556 -24 q 1560 -22 1558 -22 l 1957 208 q 1985 245 1979 221 q 1979 293 1991 269 l 1980 292 q 1943 320 1969 314 q 1894 315 1917 326 q 1714 212 1804 264 q 1535 107 1625 160 l 1270 261 l 1972 668 q 2001 712 2000 684 q 1972 757 2001 740 l 1567 993 q 1533 1001 1550 1003 q 1506 993 1516 1000 l 1145 785 l 778 997 q 753 1003 768 1003 q 724 993 737 1002 l 335 770 q 312 753 323 762 q 300 718 300 743 l 300 261 m 425 298 l 425 676 l 751 867 l 1082 677 l 1082 297 l 751 109 q 588 203 667 157 q 425 298 509 250 m 682 488 q 703 437 682 458 q 753 416 724 416 q 804 437 783 416 q 825 488 825 458 q 804 538 825 517 q 753 559 783 559 q 703 538 724 559 q 682 488 682 517 m 1207 371 l 1207 676 l 1535 868 l 1803 714 q 1650 626 1724 668 q 1503 542 1576 583 q 1357 458 1430 500 q 1207 371 1284 416 "},"":{"ha":2313,"x_min":300,"x_max":2001,"o":"m 300 261 q 312 227 300 241 q 335 205 324 212 l 726 -21 q 732 -24 729 -22 q 737 -25 734 -25 q 747 -27 743 -28 q 753 -26 750 -26 q 762 -26 758 -26 q 772 -24 766 -26 q 775 -23 774 -24 q 778 -22 777 -22 q 961 84 868 31 q 1145 191 1053 138 l 1508 -21 q 1514 -24 1511 -22 q 1520 -25 1517 -25 q 1529 -27 1525 -28 q 1535 -26 1532 -26 q 1544 -26 1540 -26 q 1554 -24 1548 -26 q 1557 -23 1556 -24 q 1560 -22 1558 -22 l 1957 208 q 1985 245 1979 221 q 1979 293 1991 269 l 1980 292 q 1943 320 1969 314 q 1894 315 1917 326 q 1714 212 1804 264 q 1535 107 1625 160 l 1270 261 l 1972 668 q 2001 712 2000 684 q 1972 757 2001 740 l 1567 993 q 1533 1001 1550 1003 q 1506 993 1516 1000 l 1145 785 l 778 997 q 753 1003 768 1003 q 724 993 737 1002 l 335 770 q 312 753 323 762 q 300 718 300 743 l 300 261 m 425 298 l 425 676 l 751 867 l 1082 677 l 1082 297 l 751 109 q 588 203 667 157 q 425 298 509 250 m 682 488 q 703 437 682 458 q 753 416 724 416 q 804 437 783 416 q 825 488 825 458 q 804 538 825 517 q 753 559 783 559 q 703 538 724 559 q 682 488 682 517 m 1207 371 l 1207 676 l 1535 868 l 1803 714 q 1650 626 1724 668 q 1503 542 1576 583 q 1357 458 1430 500 q 1207 371 1284 416 "},"":{"ha":1156,"x_min":138,"x_max":1043,"o":"m 172 656 l 528 452 l 528 39 q 546 -6 528 12 q 590 -24 564 -24 q 635 -6 616 -24 q 653 39 653 12 l 653 452 l 1008 656 q 1037 692 1031 668 q 1031 741 1043 717 q 994 767 1020 762 q 946 762 968 772 l 590 558 l 233 762 l 235 762 q 186 770 212 777 q 149 739 159 763 l 150 741 q 144 692 138 717 q 172 656 150 668 m 355 933 q 376 883 355 904 q 427 863 397 863 q 476 883 456 863 q 497 933 497 904 q 476 983 497 962 q 427 1004 456 1004 q 376 983 397 1004 q 355 933 355 962 m 676 933 q 697 883 676 904 q 747 863 718 863 q 797 883 777 863 q 818 933 818 904 q 797 983 818 962 q 747 1004 777 1004 q 697 983 718 1004 q 676 933 676 962 "},"":{"ha":1156,"x_min":120,"x_max":1036,"o":"m 132 684 q 155 660 140 668 q 186 652 170 652 q 203 654 196 652 q 216 659 210 656 q 397 762 307 710 q 578 867 488 814 l 937 659 q 968 652 954 652 q 1022 681 1002 652 q 1029 731 1036 704 q 999 768 1023 758 l 611 991 q 577 1001 596 1003 q 545 991 558 1000 l 157 768 q 127 731 134 757 q 132 684 120 706 "},"":{"ha":1156,"x_min":321,"x_max":1038,"o":"m 334 793 l 332 794 q 355 770 339 779 q 386 761 370 761 q 421 772 404 762 l 418 771 q 500 819 458 794 q 582 867 542 843 l 746 770 q 779 761 760 760 q 811 772 798 763 l 1004 884 q 1032 920 1026 896 q 1026 968 1038 944 q 990 994 1015 989 q 942 990 964 1000 q 860 942 901 966 q 778 895 818 918 l 612 990 q 581 1002 593 1003 q 558 996 569 1001 l 355 878 q 328 841 334 865 q 334 793 321 817 "},"":{"ha":724,"x_min":0,"x_max":0,"o":""},"":{"ha":1448,"x_min":0,"x_max":0,"o":""},"":{"ha":724,"x_min":0,"x_max":0,"o":""},"":{"ha":1448,"x_min":0,"x_max":0,"o":""},"":{"ha":482,"x_min":0,"x_max":0,"o":""},"":{"ha":361,"x_min":0,"x_max":0,"o":""},"":{"ha":241,"x_min":0,"x_max":0,"o":""},"":{"ha":241,"x_min":0,"x_max":0,"o":""},"":{"ha":180,"x_min":0,"x_max":0,"o":""},"":{"ha":290,"x_min":0,"x_max":0,"o":""},"":{"ha":80,"x_min":0,"x_max":0,"o":""},"":{"ha":1156,"x_min":121,"x_max":1028,"o":"m 121 484 q 140 439 121 457 q 183 421 159 421 l 965 421 q 1010 439 991 421 q 1028 484 1028 457 q 1010 528 1028 510 q 965 546 991 546 l 183 546 q 140 528 160 546 q 121 484 121 510 "},"":{"ha":1156,"x_min":121,"x_max":1028,"o":"m 121 484 q 140 439 121 457 q 183 421 159 421 l 965 421 q 1010 439 991 421 q 1028 484 1028 457 q 1010 528 1028 510 q 965 546 991 546 l 183 546 q 140 528 160 546 q 121 484 121 510 "},"":{"ha":1156,"x_min":121,"x_max":1028,"o":"m 121 484 q 140 439 121 457 q 183 421 159 421 l 965 421 q 1010 439 991 421 q 1028 484 1028 457 q 1010 528 1028 510 q 965 546 991 546 l 183 546 q 140 528 160 546 q 121 484 121 510 "},"":{"ha":1156,"x_min":121,"x_max":1028,"o":"m 121 484 q 140 439 121 457 q 183 421 159 421 l 965 421 q 1010 439 991 421 q 1028 484 1028 457 q 1010 528 1028 510 q 965 546 991 546 l 183 546 q 140 528 160 546 q 121 484 121 510 "},"":{"ha":1156,"x_min":121,"x_max":1028,"o":"m 121 484 q 140 439 121 457 q 183 421 159 421 l 965 421 q 1010 439 991 421 q 1028 484 1028 457 q 1010 528 1028 510 q 965 546 991 546 l 183 546 q 140 528 160 546 q 121 484 121 510 "},"":{"ha":1156,"x_min":124,"x_max":647,"o":"m 135 679 q 189 650 153 650 q 220 657 203 650 l 611 884 q 640 922 633 897 q 633 970 647 947 q 597 996 623 990 q 549 991 571 1001 l 158 765 q 130 727 136 751 q 135 679 124 703 "},"":{"ha":1156,"x_min":505,"x_max":1029,"o":"m 542 884 l 932 657 q 964 650 948 650 q 1018 679 998 650 q 1023 727 1029 703 q 994 765 1017 751 l 604 991 q 556 996 582 1002 q 519 970 530 991 q 512 922 505 947 q 542 884 519 897 "},"":{"ha":1156,"x_min":505,"x_max":1047,"o":"m 517 5 q 574 -26 538 -26 q 590 -24 582 -26 q 604 -18 597 -21 l 1010 216 q 1040 255 1034 232 q 1035 302 1047 279 l 1034 304 q 995 335 1021 328 q 946 326 970 342 l 947 326 l 542 93 l 543 94 q 512 55 519 81 q 517 5 505 29 "},"":{"ha":1156,"x_min":124,"x_max":797,"o":"m 135 679 q 189 650 153 650 q 220 657 203 650 l 611 884 q 640 922 633 897 q 633 970 647 947 q 597 996 623 990 q 549 991 571 1001 l 158 765 q 130 727 136 751 q 135 679 124 703 m 286 589 q 340 559 304 559 q 370 567 353 559 l 762 794 q 791 831 785 807 q 785 879 797 855 q 748 905 774 900 q 700 901 722 911 l 309 676 q 279 637 286 663 q 286 589 273 612 "},"":{"ha":1156,"x_min":355,"x_max":1029,"o":"m 390 794 l 782 567 q 812 559 799 559 q 867 589 847 559 q 873 637 880 612 q 844 676 867 663 l 453 901 q 405 905 431 911 q 368 879 379 900 q 361 831 355 856 q 390 794 368 806 m 542 884 l 932 657 q 964 650 948 650 q 1018 679 998 650 q 1023 727 1029 703 q 994 765 1017 751 l 604 991 q 556 996 582 1002 q 519 970 530 991 q 512 922 505 947 q 542 884 519 897 "},"":{"ha":1156,"x_min":163,"x_max":1047,"o":"m 175 5 q 232 -26 196 -26 q 248 -24 240 -26 q 262 -18 256 -21 l 668 216 q 699 255 692 232 q 693 302 705 279 l 692 304 q 653 335 679 328 q 604 326 628 342 l 606 326 l 200 93 l 201 94 q 170 55 178 81 q 175 5 163 29 m 517 5 q 574 -26 538 -26 q 590 -24 582 -26 q 604 -18 597 -21 l 1010 216 q 1040 255 1034 232 q 1035 302 1047 279 l 1034 304 q 995 335 1021 328 q 946 326 970 342 l 947 326 l 542 93 l 543 94 q 512 55 519 81 q 517 5 505 29 "},"":{"ha":1156,"x_min":454,"x_max":696,"o":"m 454 486 q 490 401 454 436 q 575 366 525 366 q 661 401 625 366 q 696 486 696 436 q 661 572 696 536 q 575 607 625 607 q 490 572 525 607 q 454 486 454 536 "},"":{"ha":3470,"x_min":1333,"x_max":2122,"o":"m 1333 45 q 1354 -5 1333 16 q 1404 -26 1375 -26 q 1454 -5 1434 -26 q 1475 45 1475 16 q 1454 95 1475 74 q 1404 115 1434 115 q 1354 95 1375 115 q 1333 45 1333 74 m 1666 45 q 1686 -5 1666 16 q 1736 -26 1707 -26 q 1786 -5 1765 -26 q 1807 45 1807 16 q 1786 95 1807 74 q 1736 115 1765 115 q 1686 95 1707 115 q 1666 45 1666 74 m 1980 45 q 2001 -5 1980 16 q 2051 -26 2022 -26 q 2101 -5 2081 -26 q 2122 45 2122 16 q 2101 95 2122 74 q 2051 115 2081 115 q 2001 95 2022 115 q 1980 45 1980 74 "},"":{"ha":290,"x_min":0,"x_max":0,"o":""},"":{"ha":1156,"x_min":522,"x_max":1043,"o":"m 522 486 q 531 454 522 469 q 555 432 540 439 l 554 433 l 945 205 q 975 199 962 199 q 1007 207 992 199 q 1031 231 1023 215 l 1029 229 q 1036 277 1043 252 q 1007 315 1029 302 q 858 400 930 358 q 708 486 785 441 l 1007 659 q 1036 695 1029 671 q 1029 743 1042 720 q 992 771 1017 765 q 945 766 968 777 l 554 541 l 555 542 q 531 519 541 534 q 522 486 522 505 "},"":{"ha":1156,"x_min":127,"x_max":647,"o":"m 140 228 q 195 199 159 199 q 224 205 207 199 l 616 433 q 638 456 629 441 q 647 486 647 471 q 638 517 647 501 q 616 541 629 532 l 224 766 q 177 772 201 778 q 140 743 153 766 q 134 695 127 720 q 163 659 140 671 l 461 488 l 163 315 q 134 276 140 301 q 140 228 127 252 "},"":{"ha":361,"x_min":0,"x_max":0,"o":""},"":{"ha":1156,"x_min":132,"x_max":848,"o":"m 132 262 q 158 211 132 224 l 551 -16 q 560 -20 554 -18 q 568 -24 566 -22 q 585 -26 576 -26 q 606 -22 595 -26 q 615 -18 614 -20 l 616 -17 q 714 39 664 11 q 811 96 764 68 q 840 132 832 110 q 839 174 848 154 q 797 205 823 197 q 749 203 771 214 q 666 155 708 179 q 585 107 625 131 l 257 298 l 257 309 l 781 309 q 825 328 807 309 q 843 371 843 347 q 825 415 843 397 q 781 433 807 433 l 257 433 l 257 542 l 781 542 q 825 561 807 542 q 843 604 843 581 q 825 649 843 631 q 781 667 807 667 l 257 667 l 257 676 q 421 773 342 725 q 585 869 500 821 l 749 774 l 746 775 q 781 764 762 764 q 835 794 815 764 q 839 842 846 818 q 811 880 832 867 l 612 996 q 575 999 593 1003 q 554 993 557 996 l 160 766 q 142 753 153 762 q 132 722 132 745 l 132 715 l 132 262 "},"":{"ha":1000,"x_min":0,"x_max":1000,"o":"m 0 0 l 1000 0 l 1000 1000 l 0 1000 l 0 0 "}}}
